<svg width="13" height="13" viewBox="0 0 13 13" fill="none" xmlns="http://www.w3.org/2000/svg">
<path d="M4.575 10.322H4.3C2.1 10.322 1 9.77368 1 7.0319V4.29013C1 2.09671 2.1 1 4.3 1H8.7C10.9 1 12 2.09671 12 4.29013V7.0319C12 9.22532 10.9 10.322 8.7 10.322H8.425C8.2545 10.322 8.0895 10.4043 7.985 10.5414L7.16 11.6381C6.797 12.1206 6.203 12.1206 5.84 11.6381L5.015 10.5414C4.927 10.4207 4.7235 10.322 4.575 10.322Z" stroke="#292D32" stroke-miterlimit="10" stroke-linecap="round" stroke-linejoin="round"/>
<path d="M8.69824 5.93518H8.70314" stroke="#292D32" stroke-linecap="round" stroke-linejoin="round"/>
<path d="M6.49756 5.93518H6.50251" stroke="#292D32" stroke-linecap="round" stroke-linejoin="round"/>
<path d="M4.29688 5.93518H4.30181" stroke="#292D32" stroke-linecap="round" stroke-linejoin="round"/>
</svg>
