<svg width="249" height="164" viewBox="0 0 249 164" fill="none" xmlns="http://www.w3.org/2000/svg">
<rect x="1" y="1" width="247" height="162" fill="#FAFAFA" stroke="#A6BACF" stroke-width="2"/>
<path d="M71.1384 58.5555V71.6464H69.1633V58.5555H71.1384ZM73.5014 71.6464V61.8282H75.336V63.4262H75.4574C75.662 62.885 75.9965 62.4632 76.461 62.1606C76.9254 61.8538 77.4816 61.7004 78.1293 61.7004C78.7855 61.7004 79.3352 61.8538 79.7784 62.1606C80.2259 62.4674 80.5561 62.8893 80.7692 63.4262H80.8715C81.1058 62.9021 81.4787 62.4845 81.9901 62.1734C82.5014 61.8581 83.1108 61.7004 83.8182 61.7004C84.7088 61.7004 85.4354 61.9795 85.9979 62.5377C86.5647 63.096 86.848 63.9376 86.848 65.0626V71.6464H84.9368V65.2416C84.9368 64.5768 84.7557 64.0953 84.3935 63.797C84.0313 63.4987 83.5987 63.3495 83.0959 63.3495C82.4737 63.3495 81.9901 63.5413 81.6449 63.9248C81.2997 64.3041 81.1272 64.792 81.1272 65.3886V71.6464H79.2223V65.1201C79.2223 64.5875 79.0561 64.1592 78.7237 63.8353C78.3914 63.5115 77.9588 63.3495 77.4262 63.3495C77.0639 63.3495 76.7294 63.4454 76.4226 63.6372C76.1201 63.8247 75.875 64.0867 75.6875 64.4234C75.5043 64.76 75.4127 65.15 75.4127 65.5931V71.6464H73.5014ZM93.1661 75.5328C92.3863 75.5328 91.7151 75.4305 91.1526 75.226C90.5944 75.0214 90.1384 74.7508 89.7847 74.4142C89.431 74.0775 89.1668 73.7089 88.9921 73.3083L90.6349 72.6308C90.7499 72.8183 90.9033 73.0164 91.0951 73.2252C91.2911 73.4383 91.5553 73.6194 91.8877 73.7686C92.2244 73.9177 92.6569 73.9923 93.1853 73.9923C93.9097 73.9923 94.5085 73.8154 94.9815 73.4617C95.4545 73.1123 95.691 72.5541 95.691 71.787V69.8566H95.5695C95.4545 70.0654 95.2883 70.2977 95.071 70.5534C94.8579 70.8091 94.5639 71.0306 94.1889 71.2181C93.8139 71.4056 93.3259 71.4994 92.7251 71.4994C91.9495 71.4994 91.2506 71.3183 90.6285 70.9561C90.0106 70.5896 89.5205 70.0505 89.1583 69.3389C88.8004 68.623 88.6214 67.743 88.6214 66.699C88.6214 65.6549 88.7982 64.76 89.1519 64.0143C89.5099 63.2686 89.9999 62.6975 90.6221 62.3012C91.2442 61.9007 91.9495 61.7004 92.7379 61.7004C93.3472 61.7004 93.8394 61.8027 94.2144 62.0072C94.5894 62.2075 94.8813 62.4419 95.0901 62.7103C95.3032 62.9788 95.4673 63.2153 95.5823 63.4198H95.7229V61.8282H97.5958V71.8637C97.5958 72.7075 97.3998 73.4 97.0077 73.9412C96.6157 74.4823 96.0852 74.8829 95.4161 75.1429C94.7514 75.4028 94.0014 75.5328 93.1661 75.5328ZM93.1469 69.9142C93.6967 69.9142 94.1612 69.7863 94.5404 69.5306C94.9239 69.2707 95.2137 68.9 95.4097 68.4184C95.61 67.9326 95.7102 67.351 95.7102 66.6734C95.7102 66.0129 95.6121 65.4312 95.4161 64.9284C95.2201 64.4255 94.9325 64.0335 94.5532 63.7522C94.1739 63.4667 93.7052 63.324 93.1469 63.324C92.5717 63.324 92.0923 63.4731 91.7087 63.7714C91.3252 64.0654 91.0354 64.466 90.8394 64.9731C90.6477 65.4802 90.5518 66.047 90.5518 66.6734C90.5518 67.3169 90.6498 67.8815 90.8458 68.3673C91.0418 68.8531 91.3316 69.2323 91.7151 69.5051C92.1029 69.7778 92.5802 69.9142 93.1469 69.9142ZM104.203 71.6464V61.8282H106.114V71.6464H104.203ZM105.168 60.3133C104.836 60.3133 104.55 60.2025 104.311 59.9809C104.077 59.7551 103.96 59.4866 103.96 59.1755C103.96 58.8602 104.077 58.5917 104.311 58.3701C104.55 58.1443 104.836 58.0314 105.168 58.0314C105.5 58.0314 105.784 58.1443 106.018 58.3701C106.257 58.5917 106.376 58.8602 106.376 59.1755C106.376 59.4866 106.257 59.7551 106.018 59.9809C105.784 60.2025 105.5 60.3133 105.168 60.3133ZM110.236 58.5555V71.6464H108.325V58.5555H110.236ZM118.667 67.5747V61.8282H120.585V71.6464H118.705V69.9461H118.603C118.377 70.4703 118.015 70.9071 117.516 71.2565C117.022 71.6017 116.406 71.7742 115.669 71.7742C115.038 71.7742 114.48 71.6358 113.994 71.3588C113.513 71.0775 113.134 70.662 112.857 70.1123C112.584 69.5626 112.448 68.8829 112.448 68.0733V61.8282H114.359V67.8431C114.359 68.5122 114.544 69.0448 114.915 69.4412C115.286 69.8375 115.767 70.0356 116.359 70.0356C116.717 70.0356 117.073 69.9461 117.427 69.7671C117.785 69.5882 118.081 69.3176 118.315 68.9554C118.554 68.5931 118.671 68.1329 118.667 67.5747ZM130.15 64.2252L128.418 64.5321C128.345 64.3105 128.23 64.0995 128.072 63.8992C127.919 63.699 127.71 63.5349 127.446 63.4071C127.182 63.2792 126.852 63.2153 126.455 63.2153C125.914 63.2153 125.462 63.3367 125.1 63.5796C124.738 63.8183 124.557 64.1272 124.557 64.5065C124.557 64.8346 124.678 65.0988 124.921 65.2991C125.164 65.4994 125.556 65.6635 126.097 65.7913L127.657 66.1492C128.56 66.3581 129.234 66.6798 129.677 67.1144C130.12 67.5491 130.342 68.1137 130.342 68.8083C130.342 69.3964 130.171 69.9206 129.83 70.3808C129.494 70.8367 129.023 71.1947 128.418 71.4546C127.817 71.7146 127.12 71.8446 126.327 71.8446C125.228 71.8446 124.331 71.6102 123.636 71.1414C122.942 70.6684 122.516 69.9973 122.358 69.1279L124.205 68.8467C124.32 69.3282 124.557 69.6926 124.915 69.9397C125.273 70.1826 125.739 70.3041 126.315 70.3041C126.941 70.3041 127.442 70.1741 127.817 69.9142C128.192 69.65 128.379 69.3282 128.379 68.949C128.379 68.6421 128.264 68.3843 128.034 68.1755C127.808 67.9667 127.461 67.809 126.992 67.7025L125.33 67.3382C124.414 67.1294 123.737 66.797 123.298 66.341C122.863 65.885 122.646 65.3076 122.646 64.6088C122.646 64.0292 122.808 63.5221 123.131 63.0875C123.455 62.6528 123.903 62.314 124.474 62.0711C125.045 61.824 125.699 61.7004 126.436 61.7004C127.497 61.7004 128.332 61.9305 128.942 62.3907C129.551 62.8467 129.954 63.4582 130.15 64.2252ZM136.666 61.8282V63.3623H131.303V61.8282H136.666ZM132.741 59.476H134.653V68.7636C134.653 69.1343 134.708 69.4135 134.819 69.601C134.93 69.7842 135.072 69.9099 135.247 69.9781C135.426 70.042 135.62 70.074 135.829 70.074C135.982 70.074 136.116 70.0633 136.231 70.042C136.346 70.0207 136.436 70.0037 136.5 69.9909L136.845 71.5697C136.734 71.6123 136.577 71.6549 136.372 71.6975C136.168 71.7444 135.912 71.77 135.605 71.7742C135.102 71.7828 134.633 71.6933 134.199 71.5058C133.764 71.3183 133.413 71.0285 133.144 70.6365C132.876 70.2444 132.741 69.7522 132.741 69.1599V59.476ZM138.42 71.6464V61.8282H140.268V63.3879H140.37C140.549 62.8595 140.864 62.444 141.316 62.1414C141.772 61.8346 142.287 61.6812 142.863 61.6812C142.982 61.6812 143.123 61.6855 143.285 61.694C143.451 61.7025 143.581 61.7132 143.675 61.726V63.5541C143.598 63.5328 143.461 63.5093 143.265 63.4838C143.069 63.4539 142.873 63.439 142.677 63.439C142.226 63.439 141.823 63.5349 141.469 63.7267C141.12 63.9142 140.843 64.1762 140.638 64.5129C140.434 64.8453 140.331 65.2245 140.331 65.6507V71.6464H138.42ZM147.738 71.8637C147.116 71.8637 146.553 71.7487 146.05 71.5186C145.547 71.2842 145.149 70.9454 144.855 70.5022C144.565 70.0591 144.42 69.5157 144.42 68.8723C144.42 68.3183 144.527 67.8623 144.74 67.5044C144.953 67.1464 145.241 66.863 145.603 66.6542C145.965 66.4454 146.37 66.2877 146.817 66.1812C147.265 66.0747 147.721 65.9937 148.185 65.9383C148.773 65.8701 149.251 65.8147 149.617 65.7721C149.984 65.7252 150.25 65.6507 150.416 65.5484C150.582 65.4461 150.665 65.2799 150.665 65.0498V65.0051C150.665 64.4468 150.508 64.0143 150.192 63.7075C149.881 63.4007 149.417 63.2473 148.799 63.2473C148.155 63.2473 147.648 63.39 147.278 63.6755C146.911 63.9568 146.658 64.27 146.517 64.6152L144.721 64.2061C144.934 63.6095 145.245 63.1279 145.654 62.7615C146.067 62.3907 146.543 62.1223 147.079 61.9561C147.616 61.7856 148.181 61.7004 148.773 61.7004C149.165 61.7004 149.581 61.7473 150.02 61.841C150.463 61.9305 150.876 62.0967 151.26 62.3396C151.648 62.5825 151.965 62.9298 152.212 63.3815C152.459 63.8289 152.583 64.4106 152.583 65.1265V71.6464H150.717V70.3041H150.64C150.516 70.5512 150.331 70.7941 150.084 71.0328C149.837 71.2714 149.519 71.4696 149.131 71.6272C148.744 71.7849 148.279 71.8637 147.738 71.8637ZM148.153 70.3296C148.682 70.3296 149.133 70.2252 149.508 70.0164C149.888 69.8076 150.175 69.5349 150.371 69.1983C150.572 68.8573 150.672 68.493 150.672 68.1052V66.8396C150.604 66.9078 150.471 66.9717 150.275 67.0314C150.084 67.0867 149.864 67.1358 149.617 67.1784C149.37 67.2167 149.129 67.2529 148.895 67.287C148.66 67.3169 148.464 67.3424 148.307 67.3637C147.936 67.4106 147.597 67.4894 147.29 67.6002C146.988 67.711 146.745 67.8708 146.562 68.0796C146.383 68.2842 146.293 68.5569 146.293 68.8978C146.293 69.3708 146.468 69.7288 146.817 69.9717C147.167 70.2103 147.612 70.3296 148.153 70.3296ZM156.68 65.8169V71.6464H154.769V61.8282H156.603V63.4262H156.725C156.95 62.9064 157.304 62.4887 157.786 62.1734C158.271 61.8581 158.883 61.7004 159.62 61.7004C160.289 61.7004 160.875 61.841 161.378 62.1223C161.881 62.3992 162.271 62.8126 162.548 63.3623C162.825 63.912 162.963 64.5917 162.963 65.4014V71.6464H161.052V65.6315C161.052 64.9198 160.867 64.3637 160.496 63.9632C160.125 63.5583 159.616 63.3559 158.968 63.3559C158.525 63.3559 158.131 63.4518 157.786 63.6436C157.445 63.8353 157.174 64.1166 156.974 64.4873C156.778 64.8538 156.68 65.297 156.68 65.8169ZM168.842 71.8382C168.049 71.8382 167.342 71.6358 166.72 71.2309C166.102 70.8218 165.616 70.2402 165.262 69.4859C164.913 68.7274 164.738 67.8176 164.738 66.7565C164.738 65.6954 164.915 64.7877 165.269 64.0335C165.627 63.2792 166.117 62.7018 166.739 62.3012C167.361 61.9007 168.066 61.7004 168.855 61.7004C169.464 61.7004 169.954 61.8027 170.325 62.0072C170.7 62.2075 170.99 62.4419 171.194 62.7103C171.403 62.9788 171.565 63.2153 171.68 63.4198H171.795V58.5555H173.706V71.6464H171.84V70.1187H171.68C171.565 70.3275 171.399 70.5662 171.181 70.8346C170.968 71.1031 170.674 71.3375 170.299 71.5377C169.924 71.738 169.438 71.8382 168.842 71.8382ZM169.264 70.2082C169.813 70.2082 170.278 70.0633 170.657 69.7735C171.041 69.4795 171.331 69.0725 171.527 68.5527C171.727 68.0328 171.827 67.4277 171.827 66.7373C171.827 66.0555 171.729 65.4589 171.533 64.9475C171.337 64.4362 171.049 64.0377 170.67 63.7522C170.291 63.4667 169.822 63.324 169.264 63.324C168.688 63.324 168.209 63.4731 167.826 63.7714C167.442 64.0697 167.152 64.4767 166.956 64.9923C166.764 65.5079 166.669 66.0896 166.669 66.7373C166.669 67.3936 166.767 67.9838 166.963 68.5079C167.159 69.0321 167.448 69.4475 167.832 69.7544C168.22 70.0569 168.697 70.2082 169.264 70.2082ZM180.21 71.8446C179.289 71.8446 178.486 71.6336 177.8 71.2117C177.114 70.7899 176.581 70.1997 176.202 69.4412C175.823 68.6826 175.633 67.7963 175.633 66.7821C175.633 65.7636 175.823 64.873 176.202 64.1102C176.581 63.3474 177.114 62.7551 177.8 62.3332C178.486 61.9113 179.289 61.7004 180.21 61.7004C181.13 61.7004 181.933 61.9113 182.619 62.3332C183.306 62.7551 183.838 63.3474 184.217 64.1102C184.597 64.873 184.786 65.7636 184.786 66.7821C184.786 67.7963 184.597 68.6826 184.217 69.4412C183.838 70.1997 183.306 70.7899 182.619 71.2117C181.933 71.6336 181.13 71.8446 180.21 71.8446ZM180.216 70.2402C180.813 70.2402 181.307 70.0825 181.699 69.7671C182.091 69.4518 182.381 69.0321 182.568 68.5079C182.76 67.9838 182.856 67.4064 182.856 66.7757C182.856 66.1492 182.76 65.574 182.568 65.0498C182.381 64.5214 182.091 64.0974 181.699 63.7778C181.307 63.4582 180.813 63.2984 180.216 63.2984C179.615 63.2984 179.117 63.4582 178.72 63.7778C178.328 64.0974 178.036 64.5214 177.845 65.0498C177.657 65.574 177.563 66.1492 177.563 66.7757C177.563 67.4064 177.657 67.9838 177.845 68.5079C178.036 69.0321 178.328 69.4518 178.72 69.7671C179.117 70.0825 179.615 70.2402 180.216 70.2402ZM99.9402 93.8446C99.0198 93.8446 98.2165 93.6336 97.5304 93.2117C96.8443 92.7899 96.3117 92.1997 95.9324 91.4412C95.5531 90.6826 95.3635 89.7963 95.3635 88.7821C95.3635 87.7636 95.5531 86.873 95.9324 86.1102C96.3117 85.3474 96.8443 84.7551 97.5304 84.3332C98.2165 83.9113 99.0198 83.7004 99.9402 83.7004C100.861 83.7004 101.664 83.9113 102.35 84.3332C103.036 84.7551 103.569 85.3474 103.948 86.1102C104.327 86.873 104.517 87.7636 104.517 88.7821C104.517 89.7963 104.327 90.6826 103.948 91.4412C103.569 92.1997 103.036 92.7899 102.35 93.2117C101.664 93.6336 100.861 93.8446 99.9402 93.8446ZM99.9466 92.2402C100.543 92.2402 101.038 92.0825 101.43 91.7671C101.822 91.4518 102.111 91.0321 102.299 90.5079C102.491 89.9838 102.587 89.4064 102.587 88.7757C102.587 88.1492 102.491 87.574 102.299 87.0498C102.111 86.5214 101.822 86.0974 101.43 85.7778C101.038 85.4582 100.543 85.2984 99.9466 85.2984C99.3458 85.2984 98.8472 85.4582 98.4509 85.7778C98.0588 86.0974 97.7669 86.5214 97.5752 87.0498C97.3877 87.574 97.2939 88.1492 97.2939 88.7757C97.2939 89.4064 97.3877 89.9838 97.5752 90.5079C97.7669 91.0321 98.0588 91.4518 98.4509 91.7671C98.8472 92.0825 99.3458 92.2402 99.9466 92.2402ZM113.551 93.8637C112.929 93.8637 112.367 93.7487 111.864 93.5186C111.361 93.2842 110.962 92.9454 110.668 92.5022C110.379 92.0591 110.234 91.5157 110.234 90.8723C110.234 90.3183 110.34 89.8623 110.553 89.5044C110.766 89.1464 111.054 88.863 111.416 88.6542C111.778 88.4454 112.183 88.2877 112.631 88.1812C113.078 88.0747 113.534 87.9937 113.999 87.9383C114.587 87.8701 115.064 87.8147 115.43 87.7721C115.797 87.7252 116.063 87.6507 116.229 87.5484C116.396 87.4461 116.479 87.2799 116.479 87.0498V87.0051C116.479 86.4468 116.321 86.0143 116.006 85.7075C115.695 85.4007 115.23 85.2473 114.612 85.2473C113.969 85.2473 113.462 85.39 113.091 85.6755C112.724 85.9568 112.471 86.27 112.33 86.6152L110.534 86.2061C110.747 85.6095 111.058 85.1279 111.467 84.7615C111.881 84.3907 112.356 84.1223 112.893 83.9561C113.43 83.7856 113.994 83.7004 114.587 83.7004C114.979 83.7004 115.394 83.7473 115.833 83.841C116.276 83.9305 116.69 84.0967 117.073 84.3396C117.461 84.5825 117.778 84.9298 118.026 85.3815C118.273 85.8289 118.396 86.4106 118.396 87.1265V93.6464H116.53V92.3041H116.453C116.33 92.5512 116.144 92.7941 115.897 93.0328C115.65 93.2714 115.332 93.4696 114.945 93.6272C114.557 93.7849 114.092 93.8637 113.551 93.8637ZM113.967 92.3296C114.495 92.3296 114.947 92.2252 115.322 92.0164C115.701 91.8076 115.989 91.5349 116.185 91.1983C116.385 90.8573 116.485 90.493 116.485 90.1052V88.8396C116.417 88.9078 116.285 88.9717 116.089 89.0314C115.897 89.0867 115.678 89.1358 115.43 89.1784C115.183 89.2167 114.943 89.2529 114.708 89.287C114.474 89.3169 114.278 89.3424 114.12 89.3637C113.749 89.4106 113.411 89.4894 113.104 89.6002C112.801 89.711 112.558 89.8708 112.375 90.0796C112.196 90.2842 112.107 90.5569 112.107 90.8978C112.107 91.3708 112.281 91.7288 112.631 91.9717C112.98 92.2103 113.425 92.3296 113.967 92.3296ZM120.582 93.6464V83.8282H122.429V85.3879H122.532C122.711 84.8595 123.026 84.444 123.478 84.1414C123.934 83.8346 124.449 83.6812 125.024 83.6812C125.144 83.6812 125.284 83.6855 125.446 83.694C125.613 83.7025 125.743 83.7132 125.836 83.726V85.5541C125.76 85.5328 125.623 85.5093 125.427 85.4838C125.231 85.4539 125.035 85.439 124.839 85.439C124.387 85.439 123.985 85.5349 123.631 85.7267C123.282 85.9142 123.005 86.1762 122.8 86.5129C122.595 86.8453 122.493 87.2245 122.493 87.6507V93.6464H120.582ZM132.293 83.8282V85.3623H126.93V83.8282H132.293ZM128.369 81.476H130.28V90.7636C130.28 91.1343 130.335 91.4135 130.446 91.601C130.557 91.7842 130.7 91.9099 130.874 91.9781C131.053 92.042 131.247 92.074 131.456 92.074C131.609 92.074 131.744 92.0633 131.859 92.042C131.974 92.0207 132.063 92.0037 132.127 91.9909L132.472 93.5697C132.362 93.6123 132.204 93.6549 131.999 93.6975C131.795 93.7444 131.539 93.77 131.232 93.7742C130.729 93.7828 130.261 93.6933 129.826 93.5058C129.391 93.3183 129.04 93.0285 128.771 92.6365C128.503 92.2444 128.369 91.7522 128.369 91.1599V81.476ZM134.048 93.6464V83.8282H135.959V93.6464H134.048ZM135.013 82.3133C134.68 82.3133 134.395 82.2025 134.156 81.9809C133.922 81.7551 133.805 81.4866 133.805 81.1755C133.805 80.8602 133.922 80.5917 134.156 80.3701C134.395 80.1443 134.68 80.0314 135.013 80.0314C135.345 80.0314 135.629 80.1443 135.863 80.3701C136.102 80.5917 136.221 80.8602 136.221 81.1755C136.221 81.4866 136.102 81.7551 135.863 81.9809C135.629 82.2025 135.345 82.3133 135.013 82.3133ZM142.286 97.5328C141.507 97.5328 140.835 97.4305 140.273 97.226C139.715 97.0214 139.259 96.7508 138.905 96.4142C138.551 96.0775 138.287 95.7089 138.112 95.3083L139.755 94.6308C139.87 94.8183 140.024 95.0164 140.215 95.2252C140.411 95.4383 140.676 95.6194 141.008 95.7686C141.345 95.9177 141.777 95.9923 142.306 95.9923C143.03 95.9923 143.629 95.8154 144.102 95.4617C144.575 95.1123 144.811 94.5541 144.811 93.787V91.8566H144.69C144.575 92.0654 144.409 92.2977 144.191 92.5534C143.978 92.8091 143.684 93.0306 143.309 93.2181C142.934 93.4056 142.446 93.4994 141.845 93.4994C141.07 93.4994 140.371 93.3183 139.749 92.9561C139.131 92.5896 138.641 92.0505 138.279 91.3389C137.921 90.623 137.742 89.743 137.742 88.699C137.742 87.6549 137.919 86.76 138.272 86.0143C138.63 85.2686 139.12 84.6975 139.742 84.3012C140.365 83.9007 141.07 83.7004 141.858 83.7004C142.468 83.7004 142.96 83.8027 143.335 84.0072C143.71 84.2075 144.002 84.4419 144.21 84.7103C144.424 84.9788 144.588 85.2153 144.703 85.4198H144.843V83.8282H146.716V93.8637C146.716 94.7075 146.52 95.4 146.128 95.9412C145.736 96.4823 145.205 96.8829 144.536 97.1429C143.872 97.4028 143.122 97.5328 142.286 97.5328ZM142.267 91.9142C142.817 91.9142 143.281 91.7863 143.661 91.5306C144.044 91.2707 144.334 90.9 144.53 90.4184C144.73 89.9326 144.83 89.351 144.83 88.6734C144.83 88.0129 144.732 87.4312 144.536 86.9284C144.34 86.4255 144.053 86.0335 143.674 85.7522C143.294 85.4667 142.825 85.324 142.267 85.324C141.692 85.324 141.213 85.4731 140.829 85.7714C140.446 86.0654 140.156 86.466 139.96 86.9731C139.768 87.4802 139.672 88.047 139.672 88.6734C139.672 89.3169 139.77 89.8815 139.966 90.3673C140.162 90.8531 140.452 91.2323 140.835 91.5051C141.223 91.7778 141.7 91.9142 142.267 91.9142ZM153.055 93.8446C152.135 93.8446 151.331 93.6336 150.645 93.2117C149.959 92.7899 149.426 92.1997 149.047 91.4412C148.668 90.6826 148.478 89.7963 148.478 88.7821C148.478 87.7636 148.668 86.873 149.047 86.1102C149.426 85.3474 149.959 84.7551 150.645 84.3332C151.331 83.9113 152.135 83.7004 153.055 83.7004C153.975 83.7004 154.779 83.9113 155.465 84.3332C156.151 84.7551 156.684 85.3474 157.063 86.1102C157.442 86.873 157.632 87.7636 157.632 88.7821C157.632 89.7963 157.442 90.6826 157.063 91.4412C156.684 92.1997 156.151 92.7899 155.465 93.2117C154.779 93.6336 153.975 93.8446 153.055 93.8446ZM153.061 92.2402C153.658 92.2402 154.152 92.0825 154.544 91.7671C154.936 91.4518 155.226 91.0321 155.414 90.5079C155.605 89.9838 155.701 89.4064 155.701 88.7757C155.701 88.1492 155.605 87.574 155.414 87.0498C155.226 86.5214 154.936 86.0974 154.544 85.7778C154.152 85.4582 153.658 85.2984 153.061 85.2984C152.461 85.2984 151.962 85.4582 151.566 85.7778C151.174 86.0974 150.882 86.5214 150.69 87.0498C150.502 87.574 150.409 88.1492 150.409 88.7757C150.409 89.4064 150.502 89.9838 150.69 90.5079C150.882 91.0321 151.174 91.4518 151.566 91.7671C151.962 92.0825 152.461 92.2402 153.061 92.2402Z" fill="black"/>
</svg>
