<?xml version="1.0" standalone="no"?>
<!DOCTYPE svg PUBLIC "-//W3C//DTD SVG 20010904//EN"
 "http://www.w3.org/TR/2001/REC-SVG-20010904/DTD/svg10.dtd">
<svg version="1.0" xmlns="http://www.w3.org/2000/svg"
 width="640.000000pt" height="640.000000pt" viewBox="0 0 640.000000 640.000000"
 preserveAspectRatio="xMidYMid meet">

<g transform="translate(0.000000,640.000000) scale(0.100000,-0.100000)"
fill="#000000" stroke="none">
<path d="M0 3200 l0 -3200 3200 0 3200 0 0 3200 0 3200 -3200 0 -3200 0 0
-3200z m3383 2236 c49 -20 84 -68 97 -131 16 -75 6 -87 -69 -83 l-56 3 -9 48
c-9 50 -31 72 -61 61 -29 -12 -35 -51 -42 -269 l-6 -214 26 -6 c41 -11 55 0
64 47 8 42 9 43 52 46 25 2 55 1 69 -3 23 -6 24 -9 17 -53 -15 -101 -71 -154
-169 -160 -77 -5 -140 25 -174 84 -23 39 -23 42 -18 259 4 121 11 236 16 256
13 45 43 85 84 110 37 23 131 26 179 5z m-433 -22 c6 -14 10 -38 10 -54 0 -25
-5 -31 -37 -39 -21 -6 -47 -11 -58 -11 -45 -1 -50 -12 -36 -100 17 -114 15
-110 71 -103 l48 6 7 -52 c4 -29 5 -55 2 -57 -3 -3 -24 -8 -46 -11 -46 -6 -46
-6 -30 -100 l11 -64 74 6 c83 8 86 6 88 -63 l1 -37 -85 -17 c-47 -9 -111 -19
-142 -23 l-57 -7 -6 34 c-38 220 -105 654 -102 662 3 9 205 50 265 55 7 1 17
-11 22 -25z m921 -59 c86 -31 139 -112 125 -195 -13 -80 -116 -404 -140 -440
-44 -67 -115 -91 -198 -66 -83 24 -138 92 -138 171 0 38 104 393 130 445 22
43 45 65 90 84 45 20 77 20 131 1z m-1409 -150 c-1 -72 -5 -143 -7 -160 -5
-33 -7 -30 185 -235 52 -56 95 -107 95 -113 0 -14 -81 -56 -110 -56 -12 -1
-44 26 -83 69 -35 39 -68 68 -73 65 -15 -10 -10 -60 13 -120 16 -42 18 -59 10
-67 -18 -18 -99 -46 -111 -39 -5 4 -60 128 -122 276 -61 149 -120 290 -130
314 -10 24 -19 48 -19 53 0 13 87 50 111 46 15 -2 30 -26 57 -88 27 -62 38
-78 39 -60 1 14 5 65 8 113 l7 88 51 24 c83 38 82 39 79 -110z m1888 -61 c96
-59 116 -78 136 -130 32 -85 20 -129 -92 -313 -121 -201 -146 -224 -242 -229
-65 -3 -70 -2 -159 50 -51 29 -95 59 -98 66 -7 20 346 602 365 602 9 0 49 -21
90 -46z m-2412 -138 c39 -21 68 -53 195 -224 143 -193 158 -233 114 -322 -46
-94 -175 -135 -260 -81 -42 26 -267 317 -298 386 -23 51 -23 90 0 140 33 71
98 114 174 115 26 0 60 -6 75 -14z m2912 -240 c49 -49 90 -96 90 -103 0 -17
-50 -73 -65 -73 -6 0 -31 20 -55 45 -24 25 -49 45 -54 45 -14 0 -136 -122
-136 -135 0 -7 11 -22 25 -35 33 -31 32 -46 -6 -81 -38 -35 -49 -36 -79 -4
-13 14 -29 25 -36 25 -7 0 -34 -25 -60 -56 l-47 -55 52 -53 53 -53 -33 -37
c-17 -20 -38 -36 -45 -34 -19 4 -206 188 -202 199 2 5 109 119 238 253 146
152 242 244 252 243 10 -1 58 -42 108 -91z m-3264 -161 c78 -51 166 -133 185
-173 30 -61 23 -145 -16 -201 -15 -23 -26 -43 -24 -44 39 -28 119 -102 119
-110 0 -20 -72 -98 -86 -93 -17 6 -504 398 -528 425 -17 18 -15 22 47 97 35
44 79 88 97 98 63 37 151 38 206 1z m1819 -114 c220 -33 422 -113 594 -236 96
-69 144 -110 116 -100 -86 32 -146 45 -205 45 -60 0 -78 5 -171 49 -481 229
-1058 123 -1424 -260 -39 -41 -82 -89 -95 -108 l-26 -33 -56 12 c-87 20 -87
21 -38 87 60 81 232 250 310 305 184 129 395 212 620 243 136 19 227 18 375
-4z m1745 -78 c58 -90 74 -140 66 -198 -12 -78 -48 -116 -198 -207 -54 -33
-70 -38 -124 -38 -55 0 -65 -3 -82 -25 -19 -23 -25 -25 -96 -23 -42 2 -76 6
-76 10 0 3 21 32 46 63 44 53 52 85 22 85 -8 0 -22 -6 -33 -13 -11 -8 -41 -26
-66 -40 l-46 -27 -31 44 c-18 24 -32 53 -32 63 0 11 19 30 48 48 66 41 287
184 412 266 58 38 113 69 123 69 11 0 36 -29 67 -77z m-2269 -376 c6 -13 24
-32 41 -41 l30 -18 -31 -19 c-17 -10 -37 -30 -43 -44 -14 -32 -19 -31 -40 5
-9 17 -28 35 -42 41 l-24 11 41 43 c23 23 45 43 50 43 4 1 12 -9 18 -21z m884
-26 c3 -5 -18 -40 -46 -77 -28 -38 -58 -83 -67 -101 -14 -29 -21 -34 -47 -31
-58 6 -40 81 37 154 53 51 110 76 123 55z m545 -93 c23 -50 25 -68 8 -68 -7 0
-39 -11 -71 -24 -79 -33 -83 -15 -15 68 29 35 54 65 56 65 2 1 12 -18 22 -41z
m-239 -13 c35 -22 83 -100 73 -116 -9 -15 -297 -158 -307 -152 -17 11 -37 73
-37 118 0 144 152 229 271 150z m-1835 -150 c168 -55 334 -144 536 -286 l96
-69 59 36 c96 57 180 79 308 78 125 0 183 -15 283 -70 l65 -35 43 30 c202 146
387 248 549 304 131 45 175 53 175 32 0 -44 -68 -255 -98 -305 -40 -66 -65
-99 -72 -95 -4 3 -10 -1 -13 -9 -6 -15 -194 -110 -320 -162 -45 -18 -83 -38
-85 -44 -2 -5 10 -43 26 -83 35 -85 62 -207 62 -283 0 -61 -28 -171 -58 -230
-28 -55 -98 -128 -113 -118 -7 4 -10 3 -5 -4 7 -11 -23 -34 -86 -66 -32 -16
-40 -17 -55 -5 -16 12 -17 12 -5 -2 11 -14 5 -18 -46 -33 -32 -9 -68 -16 -80
-16 -11 0 -23 -4 -27 -9 -3 -5 27 -11 69 -13 41 -2 72 1 69 6 -3 5 9 6 28 4
19 -3 41 -2 49 2 8 4 31 12 49 19 40 12 46 8 55 -48 5 -35 45 -120 83 -178 10
-15 12 -24 6 -20 -9 6 -11 3 -7 -7 8 -22 40 -29 66 -15 45 23 167 119 236 186
171 165 295 396 348 643 24 116 25 374 0 480 l-17 74 53 48 c29 26 56 47 59
48 6 0 31 -107 50 -210 19 -108 14 -349 -10 -463 -72 -339 -244 -619 -506
-821 -149 -115 -249 -168 -424 -226 -412 -136 -864 -66 -1223 190 -105 75
-264 236 -336 342 -151 221 -242 508 -242 766 0 153 49 436 75 432 6 -1 31
-22 57 -46 l48 -44 -16 -73 c-22 -100 -29 -315 -15 -416 44 -298 171 -546 381
-745 84 -79 267 -204 279 -190 7 7 42 89 92 212 5 13 9 38 9 57 0 40 0 40 59
19 64 -22 202 -37 242 -26 33 8 33 9 -31 21 -79 15 -130 32 -130 44 0 4 -5 5
-10 2 -6 -4 -23 1 -38 12 -15 10 -36 23 -47 29 -11 6 -19 16 -18 22 2 6 -3 9
-10 6 -13 -5 -57 38 -57 56 0 6 -5 10 -10 10 -14 0 -55 92 -75 170 -13 47 -16
87 -12 145 6 77 41 213 72 272 8 15 15 31 15 35 0 4 20 42 46 85 l45 78 -53
-57 -53 -58 -115 50 c-288 126 -329 154 -383 261 -34 69 -77 199 -93 283 -6
37 -6 37 22 30 16 -3 75 -21 130 -39z m-553 -99 c23 -20 28 -30 18 -33 -16 -7
-44 -34 -60 -59 -10 -15 -13 -16 -18 -5 -8 19 -45 57 -62 62 -7 3 5 22 31 50
35 37 45 43 51 30 5 -9 23 -29 40 -45z m3148 -119 l22 -16 -31 -26 c-17 -14
-34 -35 -37 -46 -7 -20 -8 -19 -25 9 -10 16 -28 36 -39 44 -21 15 -21 15 14
52 19 21 35 43 35 49 0 7 9 -2 19 -19 11 -18 29 -39 42 -47z m7 -375 c47 -23
58 -32 60 -56 4 -36 -3 -43 -85 -77 -81 -35 -83 -35 -83 -6 0 18 12 28 63 50
l62 28 -62 27 c-52 22 -63 31 -63 51 0 20 4 22 25 17 14 -4 51 -19 83 -34z
m-3128 -11 c0 -14 -16 -25 -60 -43 -33 -12 -60 -26 -60 -30 0 -3 17 -12 38
-18 50 -17 82 -37 82 -55 0 -21 -15 -19 -98 12 -72 28 -73 28 -70 62 3 32 7
37 68 62 79 33 100 35 100 10z m2479 -259 c7 -16 26 -36 44 -44 l32 -15 -32
-17 c-18 -9 -40 -30 -49 -47 l-16 -31 -18 30 c-11 17 -31 39 -45 48 l-26 17
29 18 c15 11 35 30 42 44 17 32 25 32 39 -3z m-2450 -149 l26 -23 -26 -22
c-15 -13 -31 -32 -37 -43 -10 -19 -11 -18 -23 8 -7 15 -15 27 -18 27 -3 0 -14
7 -23 14 -16 12 -15 16 20 53 31 33 38 37 46 24 4 -9 20 -26 35 -38z m3010 -8
c27 -8 27 -22 1 -30 -11 -4 -28 -17 -36 -30 l-16 -24 -34 35 -35 34 30 31 c17
17 31 36 31 42 0 7 9 -2 19 -20 11 -17 29 -34 40 -38z m-2409 -103 c-18 -6
-56 -44 -62 -62 -3 -9 -18 1 -49 30 l-44 44 40 41 40 40 44 -44 c30 -30 40
-46 31 -49z m-319 -392 c8 0 0 -9 -18 -20 -17 -10 -37 -28 -43 -39 -10 -20
-12 -19 -48 17 l-37 37 35 35 35 36 31 -33 c17 -18 38 -33 45 -33z m2530 0 c8
0 1 -8 -14 -19 -15 -10 -35 -27 -42 -39 -15 -20 -15 -20 -52 16 l-38 37 35 35
35 35 31 -32 c17 -18 38 -33 45 -33z m-396 -436 c57 -27 74 -50 231 -324 52
-89 57 -149 18 -219 -26 -50 -53 -72 -165 -139 -20 -12 -43 -22 -52 -22 -19 0
-371 585 -364 604 3 8 45 37 94 65 79 45 94 51 146 51 33 0 74 -7 92 -16z
m-1704 -31 c69 -35 99 -79 98 -142 -1 -55 -19 -111 -41 -124 -22 -15 -104 42
-100 69 2 10 6 32 9 48 4 21 1 33 -12 42 -23 17 -50 3 -70 -36 -24 -46 -18
-85 26 -170 58 -110 62 -160 20 -245 -35 -71 -65 -99 -123 -117 -87 -26 -219
52 -239 141 -11 51 12 148 38 158 8 3 36 -5 60 -18 42 -23 44 -25 37 -59 -14
-70 1 -103 45 -98 34 4 74 71 66 111 -2 16 -23 66 -45 111 -54 110 -56 176 -7
256 58 98 139 123 238 73z m1390 -433 c86 -173 154 -320 152 -326 -5 -14 -83
-37 -109 -32 -11 1 -26 18 -34 35 -16 35 -25 37 -85 19 -39 -11 -40 -13 -45
-61 l-5 -50 -53 -14 c-35 -9 -56 -11 -63 -4 -13 13 -80 696 -69 707 10 10 131
45 145 42 6 -1 80 -143 166 -316z m-972 275 c74 -38 108 -114 92 -202 -18 -91
-82 -348 -97 -388 -14 -36 -14 -40 1 -51 13 -10 16 -21 10 -53 -3 -21 -13 -42
-21 -45 -21 -8 -245 51 -273 72 -84 63 -88 122 -26 377 58 238 80 279 164 306
36 11 113 3 150 -16z m517 -33 c7 -4 14 -23 17 -42 9 -59 11 -533 3 -560 -13
-38 -54 -88 -86 -105 -37 -19 -142 -19 -179 0 -40 20 -79 69 -90 113 -5 20
-11 161 -13 312 l-3 275 63 3 c44 2 63 -1 66 -10 6 -17 16 -310 16 -449 0 -90
3 -111 19 -130 17 -21 22 -22 45 -11 l27 12 -2 289 c-1 159 2 294 5 300 8 12
94 15 112 3z"/>
<path d="M3791 5231 c-11 -11 -31 -57 -45 -103 -69 -230 -79 -266 -83 -305 -4
-34 -1 -43 16 -52 49 -27 60 -5 141 273 45 157 48 181 21 196 -26 13 -28 13
-50 -9z"/>
<path d="M4190 4827 c-89 -149 -119 -206 -112 -217 12 -20 62 -24 84 -8 24 18
208 328 208 351 0 26 -17 55 -39 67 -17 8 -32 -13 -141 -193z"/>
<path d="M1810 4875 c-18 -22 -6 -46 97 -184 134 -180 162 -211 189 -211 35 0
48 32 29 70 -19 38 -222 310 -243 328 -21 17 -57 15 -72 -3z"/>
<path d="M1415 4480 c-22 -25 -30 -16 114 -129 111 -88 131 -92 131 -26 0 39
-15 59 -99 125 -71 56 -114 65 -146 30z"/>
<path d="M4940 4238 c-69 -44 -127 -83 -130 -85 -3 -3 8 -16 24 -30 38 -32 64
-27 158 33 85 55 97 68 98 110 0 61 -17 58 -150 -28z"/>
<path d="M3410 3217 c-33 -16 -70 -73 -70 -107 0 -35 36 -88 79 -117 39 -27
98 -30 140 -9 35 19 66 85 57 122 -23 90 -132 149 -206 111z m76 -72 c30 -46
-8 -105 -57 -90 -37 12 -48 86 -15 107 23 15 56 8 72 -17z"/>
<path d="M2883 3200 c-34 -21 -63 -66 -63 -100 0 -40 28 -89 61 -105 41 -22
116 -22 157 -1 82 42 83 169 1 212 -40 20 -118 18 -156 -6z m157 -56 c20 -50
-25 -98 -69 -75 -40 22 -39 95 2 110 28 11 55 -3 67 -35z"/>
<path d="M3170 2975 c-19 -22 -3 -35 46 -35 47 0 71 23 43 41 -22 14 -75 10
-89 -6z"/>
<path d="M2744 2900 c-11 -4 -34 -24 -51 -43 -57 -65 -53 -160 8 -212 25 -20
41 -25 89 -25 48 0 64 4 90 26 42 36 60 74 60 129 0 57 -21 100 -60 120 -31
16 -102 19 -136 5z m16 -50 c0 -5 -5 -10 -11 -10 -5 0 -7 5 -4 10 3 6 8 10 11
10 2 0 4 -4 4 -10z m104 1 c4 -5 -3 -7 -14 -4 -23 6 -26 13 -6 13 8 0 17 -4
20 -9z m26 -139 c0 -15 -11 -21 -27 -15 -12 5 -12 7 -1 14 17 11 28 11 28 1z
m-163 -19 c0 -9 -4 -10 -14 -2 -7 6 -13 12 -13 14 0 1 6 2 13 2 8 0 14 -6 14
-14z m87 -1 c3 -5 -1 -9 -9 -9 -8 0 -12 4 -9 9 3 4 7 8 9 8 2 0 6 -4 9 -8z
m46 -12 c0 -5 -8 -10 -17 -10 -15 0 -16 2 -3 10 19 12 20 12 20 0z m-43 -16
c-3 -3 -12 -4 -19 -1 -8 3 -5 6 6 6 11 1 17 -2 13 -5z"/>
<path d="M3560 2888 c-82 -42 -111 -146 -59 -212 45 -57 161 -76 210 -33 68
58 87 140 47 204 -38 64 -120 80 -198 41z m27 -55 c5 3 10 0 10 -7 0 -8 -7
-12 -15 -8 -9 3 -13 1 -9 -5 5 -8 -14 -10 -42 -4 -2 1 4 10 14 21 13 14 21 17
26 9 4 -6 11 -9 16 -6z m139 -5 c4 -7 3 -8 -4 -4 -19 11 -14 -5 6 -20 16 -12
15 -13 -5 -11 -12 0 -20 4 -17 8 2 4 0 10 -6 14 -11 7 -4 25 10 25 5 0 12 -5
16 -12z m-176 -59 c0 -11 -4 -17 -10 -14 -5 3 -10 13 -10 21 0 8 5 14 10 14 6
0 10 -9 10 -21z m141 -52 c-10 -9 -11 -8 -5 6 3 10 9 15 12 12 3 -3 0 -11 -7
-18z m-91 -3 c0 -8 -19 -13 -24 -6 -3 5 1 9 9 9 8 0 15 -2 15 -3z m100 -18
c-14 -14 -38 -27 -55 -30 l-30 -6 32 12 c18 7 40 21 50 31 9 9 20 17 22 17 3
0 -6 -11 -19 -24z m-116 -12 c9 -3 16 -11 16 -16 0 -7 -5 -6 -13 1 -8 6 -17 8
-20 4 -4 -3 -7 -1 -7 5 0 14 2 14 24 6z"/>
<path d="M3545 2820 c-3 -6 1 -7 9 -4 18 7 21 14 7 14 -6 0 -13 -4 -16 -10z"/>
<path d="M3060 2814 c-25 -9 -51 -21 -57 -26 -22 -17 -15 -38 12 -38 21 0 25
-5 25 -27 0 -41 52 -145 94 -186 63 -63 135 -57 189 15 32 43 44 67 72 142 12
33 26 69 30 79 13 31 -54 49 -195 54 -97 3 -135 0 -170 -13z m273 -33 c21 -5
40 -11 42 -13 8 -8 -22 -78 -30 -71 -4 5 -5 2 -1 -5 10 -17 -41 -118 -72 -143
-27 -21 -82 -26 -82 -7 0 6 -3 8 -6 5 -8 -8 -59 48 -81 88 -9 17 -22 52 -29
79 -12 44 -11 51 4 62 20 14 200 18 255 5z"/>
<path d="M3085 2760 c-3 -6 1 -7 9 -4 18 7 21 14 7 14 -6 0 -13 -4 -16 -10z"/>
<path d="M3625 2420 c-3 -6 1 -7 9 -4 18 7 21 14 7 14 -6 0 -13 -4 -16 -10z"/>
<path d="M3457 2138 c-10 -39 -102 -171 -142 -207 -19 -17 -35 -33 -35 -36 0
-6 48 0 147 17 35 6 60 14 57 20 -3 5 -9 60 -13 121 -4 75 -9 103 -14 85z"/>
<path d="M2970 2088 c0 -24 -3 -73 -6 -109 l-7 -66 90 -12 c135 -17 133 -18
77 42 -28 28 -71 82 -98 120 -26 37 -50 67 -52 67 -2 0 -4 -19 -4 -42z"/>
<path d="M3765 2040 c-3 -6 1 -7 9 -4 18 7 21 14 7 14 -6 0 -13 -4 -16 -10z"/>
<path d="M4018 1689 c-10 -5 -18 -14 -18 -19 0 -10 225 -389 239 -403 12 -12
61 39 61 63 0 28 -194 356 -215 364 -23 9 -47 7 -67 -5z"/>
<path d="M3677 1345 c9 -95 23 -199 27 -203 3 -2 20 1 40 8 41 13 42 4 -27
150 l-46 95 6 -50z"/>
<path d="M2745 1488 c-22 -50 -106 -409 -100 -429 13 -39 70 -34 86 8 5 13 30
110 55 215 38 154 44 195 35 214 -17 37 -58 32 -76 -8z"/>
</g>
</svg>
