<svg width="27" height="27" viewBox="0 0 27 27" fill="none" xmlns="http://www.w3.org/2000/svg">
<path d="M23.4375 0.433594H2.8125C1.23047 0.433594 0 1.72266 0 3.24609V23.8711C0 25.4531 1.23047 26.6836 2.8125 26.6836H10.8398V17.7773H7.14844V13.5586H10.8398V10.3945C10.8398 6.76172 13.0078 4.71094 16.2891 4.71094C17.9297 4.71094 19.5703 5.00391 19.5703 5.00391V8.57812H17.7539C15.9375 8.57812 15.3516 9.69141 15.3516 10.8633V13.5586H19.3945L18.75 17.7773H15.3516V26.6836H23.4375C24.9609 26.6836 26.25 25.4531 26.25 23.8711V3.24609C26.25 1.72266 24.9609 0.433594 23.4375 0.433594Z" fill="white"/>
</svg>
