<svg width="21" height="16" viewBox="0 0 21 16" fill="none" xmlns="http://www.w3.org/2000/svg">
<path d="M19.6782 5.04346C19.8344 4.92627 20.0688 5.04346 20.0688 5.23877V13.2075C20.0688 14.2622 19.2094 15.0825 18.1938 15.0825H1.9438C0.889114 15.0825 0.0688019 14.2622 0.0688019 13.2075V5.23877C0.0688019 5.04346 0.264114 4.92627 0.420364 5.04346C1.3188 5.74658 2.45161 6.60596 6.43599 9.49658C7.2563 10.0825 8.66255 11.3716 10.0688 11.3716C11.436 11.3716 12.8813 10.0825 13.6626 9.49658C17.6469 6.60596 18.7797 5.74658 19.6782 5.04346ZM10.0688 10.0825C9.1313 10.1216 7.84224 8.94971 7.17818 8.48096C1.98286 4.73096 1.59224 4.37939 0.420364 3.44189C0.185989 3.28564 0.0688019 3.01221 0.0688019 2.69971V1.95752C0.0688019 0.941895 0.889114 0.0825195 1.9438 0.0825195H18.1938C19.2094 0.0825195 20.0688 0.941895 20.0688 1.95752V2.69971C20.0688 3.01221 19.9126 3.28564 19.6782 3.44189C18.5063 4.37939 18.1157 4.73096 12.9204 8.48096C12.2563 8.94971 10.9672 10.1216 10.0688 10.0825Z" fill="white"/>
</svg>
