<svg width="27" height="27" viewBox="0 0 27 27" fill="none" xmlns="http://www.w3.org/2000/svg">
<path d="M13.5897 10.4534C11.8319 10.4534 10.4257 11.8596 10.4257 13.5588C10.4257 15.3167 11.8319 16.7229 13.5897 16.7229C15.2889 16.7229 16.6952 15.3167 16.6952 13.5588C16.6952 11.8596 15.2889 10.4534 13.5897 10.4534ZM20.8553 8.05103C20.5624 7.23071 19.9178 6.58618 19.0975 6.29321C17.8671 5.76587 14.9374 5.88306 13.5897 5.88306C12.1835 5.88306 9.25378 5.76587 8.02332 6.29321C7.203 6.58618 6.55847 7.23071 6.2655 8.05103C5.79675 9.28149 5.85535 12.2112 5.85535 13.5588C5.85535 14.9651 5.79675 17.8948 6.2655 19.1252C6.55847 19.9456 7.203 20.5901 8.02332 20.8831C9.25378 21.4104 12.1835 21.2932 13.5897 21.2932C14.9374 21.2932 17.8671 21.4104 19.0975 20.8831C19.9178 20.5901 20.5624 19.9456 20.8553 19.1252C21.3827 17.8948 21.2655 14.9651 21.2655 13.5588C21.2655 12.2112 21.3827 9.28149 20.8553 8.05103ZM13.5897 18.3635C10.8944 18.3635 8.78503 16.2542 8.78503 13.5588C8.78503 10.9221 10.8944 8.75415 13.5897 8.75415C16.2264 8.75415 18.3944 10.9221 18.3944 13.5588V13.6174C18.3944 16.2542 16.2264 18.4221 13.5897 18.4221V18.3635ZM18.5702 9.69165C17.9257 9.69165 17.4569 9.2229 17.4569 8.57837C17.4569 7.93384 17.9257 7.46509 18.5702 7.46509C19.1561 7.46509 19.6835 7.93384 19.6835 8.57837C19.6835 9.2229 19.1561 9.69165 18.5702 9.69165ZM23.9022 0.433838H3.27722C1.69519 0.433838 0.464722 1.7229 0.464722 3.24634V23.8713C0.464722 25.4534 1.69519 26.6838 3.27722 26.6838H23.9022C25.4257 26.6838 26.7147 25.4534 26.7147 23.8713V3.24634C26.7147 1.7229 25.4257 0.433838 23.9022 0.433838ZM22.8475 17.426C22.7889 18.9495 22.4374 20.2971 21.3827 21.3518C20.2694 22.4651 18.9218 22.8167 17.4569 22.8752C15.8749 22.9924 11.246 22.9924 9.72253 22.8752C8.1991 22.8167 6.85144 22.4651 5.79675 21.3518C4.68347 20.2971 4.33191 18.9495 4.27332 17.426C4.15613 15.9026 4.15613 11.2737 4.27332 9.69165C4.33191 8.22681 4.68347 6.87915 5.79675 5.76587C6.85144 4.71118 8.1991 4.35962 9.72253 4.30103C11.246 4.18384 15.8749 4.18384 17.4569 4.30103C18.9218 4.35962 20.2694 4.71118 21.3827 5.82446C22.4374 6.87915 22.7889 8.22681 22.8475 9.75024C22.9647 11.2737 22.9647 15.9026 22.8475 17.426Z" fill="white"/>
</svg>
