<svg width="27" height="27" viewBox="0 0 27 27" fill="none" xmlns="http://www.w3.org/2000/svg">
<path d="M24.5721 0.433838H2.01355C1.01746 0.433838 0.197144 1.31274 0.197144 2.36743V24.8088C0.197144 25.8635 1.01746 26.6838 2.01355 26.6838H24.5721C25.5682 26.6838 26.4471 25.8635 26.4471 24.8088V2.36743C26.4471 1.31274 25.5682 0.433838 24.5721 0.433838ZM8.1073 22.9338H4.24011V10.4534H8.1073V22.9338ZM6.17371 8.69556C4.88464 8.69556 3.88855 7.69946 3.88855 6.46899C3.88855 5.23853 4.88464 4.18384 6.17371 4.18384C7.40417 4.18384 8.40027 5.23853 8.40027 6.46899C8.40027 7.69946 7.40417 8.69556 6.17371 8.69556ZM22.6971 22.9338H18.7714V16.8401C18.7714 15.4338 18.7714 13.5588 16.7792 13.5588C14.7284 13.5588 14.4354 15.1409 14.4354 16.7815V22.9338H10.5682V10.4534H14.2596V12.1526H14.3182C14.8456 11.1565 16.1346 10.1018 18.0096 10.1018C21.9354 10.1018 22.6971 12.7385 22.6971 16.0784V22.9338Z" fill="white"/>
</svg>
