<svg width="27" height="27" viewBox="0 0 27 27" fill="none" xmlns="http://www.w3.org/2000/svg">
<path d="M24.1699 0.433838H3.54492C1.96289 0.433838 0.732422 1.7229 0.732422 3.24634V23.8713C0.732422 25.4534 1.96289 26.6838 3.54492 26.6838H24.1699C25.6934 26.6838 26.9824 25.4534 26.9824 23.8713V3.24634C26.9824 1.7229 25.6934 0.433838 24.1699 0.433838ZM21.2988 9.75024C21.2988 9.92603 21.2988 10.1018 21.2988 10.2776C21.2988 15.3167 17.4316 21.176 10.3418 21.176C8.17383 21.176 6.18164 20.5901 4.48242 19.4768C4.77539 19.5354 5.06836 19.5354 5.36133 19.5354C7.17773 19.5354 8.81836 18.8909 10.166 17.8948C8.4668 17.8362 7.06055 16.7229 6.5332 15.1995C7.17773 15.3167 7.70508 15.3167 8.29102 15.1409C6.5332 14.7893 5.24414 13.2659 5.24414 11.3909V11.3323C5.71289 11.6252 6.29883 11.801 6.94336 11.801C5.88867 11.0979 5.24414 9.92603 5.24414 8.63696C5.24414 7.87524 5.41992 7.23071 5.77148 6.64478C7.64648 8.98853 10.5176 10.512 13.6816 10.6877C13.1543 8.10962 15.0879 5.94165 17.4316 5.94165C18.5449 5.94165 19.541 6.4104 20.2441 7.17212C21.123 6.99634 21.9434 6.70337 22.7051 6.23462C22.4121 7.17212 21.7676 7.87524 21.0059 8.34399C21.7676 8.2854 22.5293 8.05103 23.2324 7.75806C22.7051 8.51978 22.002 9.2229 21.2988 9.75024Z" fill="white"/>
</svg>
