<svg width="16" height="21" viewBox="0 0 16 21" fill="none" xmlns="http://www.w3.org/2000/svg">
<path d="M6.78757 20.3276C1.08444 12.1245 0.0688171 11.2651 0.0688171 8.21826C0.0688171 4.07764 3.38913 0.718262 7.56882 0.718262C11.7094 0.718262 15.0688 4.07764 15.0688 8.21826C15.0688 11.2651 14.0141 12.1245 8.311 20.3276C7.95944 20.8745 7.13913 20.8745 6.78757 20.3276ZM7.56882 11.3433C9.28757 11.3433 10.6938 9.97607 10.6938 8.21826C10.6938 6.49951 9.28757 5.09326 7.56882 5.09326C5.811 5.09326 4.44382 6.49951 4.44382 8.21826C4.44382 9.97607 5.811 11.3433 7.56882 11.3433Z" fill="white"/>
</svg>
