<svg width="60" height="60" viewBox="0 0 60 60" fill="none" xmlns="http://www.w3.org/2000/svg">
<path d="M52.4 30.56V35.32C52.4 44.14 47.36 47.92 39.8 47.92H14.6C7.04 47.92 2 44.14 2 35.32V20.2C2 11.38 7.04 7.59998 14.6 7.59998H22.16C21.796 8.66398 21.6 9.83998 21.6 11.1V22.02C21.6 24.736 22.496 27.032 24.092 28.628C25.688 30.224 27.984 31.12 30.7 31.12V35.012C30.7 36.44 32.324 37.308 33.528 36.524L41.62 31.12H48.9C50.16 31.12 51.336 30.924 52.4 30.56Z" stroke="#292D32" stroke-width="3" stroke-miterlimit="10" stroke-linecap="round" stroke-linejoin="round"/>
<path d="M58.0001 11.1V22.0201C58.0001 26.192 55.8721 29.328 52.4001 30.56C51.3361 30.924 50.1601 31.12 48.9001 31.12H41.6201L33.5281 36.524C32.3241 37.308 30.7001 36.44 30.7001 35.012V31.12C27.9841 31.12 25.6881 30.224 24.0921 28.628C22.4961 27.032 21.6001 24.736 21.6001 22.0201V11.1C21.6001 9.84 21.7961 8.664 22.1601 7.6C23.3921 4.128 26.5281 2 30.7001 2H48.9001C54.3601 2 58.0001 5.64 58.0001 11.1Z" stroke="#292D32" stroke-width="3" stroke-miterlimit="10" stroke-linecap="round" stroke-linejoin="round"/>
<path d="M17.1196 58H37.2796" stroke="#292D32" stroke-width="3" stroke-miterlimit="10" stroke-linecap="round" stroke-linejoin="round"/>
<path d="M27.2002 47.9197V57.9997" stroke="#292D32" stroke-width="3" stroke-miterlimit="10" stroke-linecap="round" stroke-linejoin="round"/>
<path d="M48.188 16.7H48.2132" stroke="#292D32" stroke-width="3" stroke-linecap="round" stroke-linejoin="round"/>
<path d="M40.3481 16.7H40.3733" stroke="#292D32" stroke-width="3" stroke-linecap="round" stroke-linejoin="round"/>
<path d="M32.5078 16.7H32.533" stroke="#292D32" stroke-width="3" stroke-linecap="round" stroke-linejoin="round"/>
</svg>
