<svg width="74" height="32" viewBox="0 0 74 32" fill="none" xmlns="http://www.w3.org/2000/svg">
<path d="M0.464 24V0.159998H4.24V20.64H14.544V24H0.464ZM24.754 24.384C23.09 24.384 21.5647 23.9893 20.178 23.2C18.8127 22.4107 17.7247 21.3333 16.914 19.968C16.1033 18.6027 15.698 17.056 15.698 15.328C15.698 13.5787 16.1033 12.032 16.914 10.688C17.7247 9.32267 18.8127 8.256 20.178 7.488C21.5433 6.69867 23.0687 6.304 24.754 6.304C26.4607 6.304 27.986 6.69867 29.33 7.488C30.6953 8.256 31.7727 9.32267 32.562 10.688C33.3727 12.032 33.778 13.5787 33.778 15.328C33.778 17.0773 33.3727 18.6347 32.562 20C31.7513 21.3653 30.6633 22.4427 29.298 23.232C27.9327 24 26.418 24.384 24.754 24.384ZM24.754 21.024C25.778 21.024 26.6847 20.7787 27.474 20.288C28.2633 19.7973 28.882 19.1253 29.33 18.272C29.7993 17.3973 30.034 16.416 30.034 15.328C30.034 14.24 29.7993 13.2693 29.33 12.416C28.882 11.5627 28.2633 10.8907 27.474 10.4C26.6847 9.90933 25.778 9.664 24.754 9.664C23.7513 9.664 22.8447 9.90933 22.034 10.4C21.2447 10.8907 20.6153 11.5627 20.146 12.416C19.698 13.2693 19.474 14.24 19.474 15.328C19.474 16.416 19.698 17.3973 20.146 18.272C20.6153 19.1253 21.2447 19.7973 22.034 20.288C22.8447 20.7787 23.7513 21.024 24.754 21.024ZM44.7003 31.04C43.4416 31.04 42.2789 30.8373 41.2123 30.432C40.1456 30.0267 39.2283 29.4613 38.4603 28.736C37.6923 28.032 37.1163 27.2 36.7323 26.24L40.0603 24.864C40.3589 25.6747 40.9029 26.3467 41.6923 26.88C42.5029 27.4133 43.4949 27.68 44.6683 27.68C45.5856 27.68 46.4069 27.4987 47.1323 27.136C47.8576 26.7947 48.4336 26.2827 48.8603 25.6C49.2869 24.9387 49.5003 24.1387 49.5003 23.2V19.296L50.1403 20.032C49.5429 21.1413 48.7109 21.984 47.6443 22.56C46.5989 23.136 45.4149 23.424 44.0923 23.424C42.4923 23.424 41.0523 23.0507 39.7723 22.304C38.4923 21.5573 37.4789 20.5333 36.7323 19.232C36.0069 17.9307 35.6443 16.4693 35.6443 14.848C35.6443 13.2053 36.0069 11.744 36.7323 10.464C37.4789 9.184 38.4816 8.17067 39.7403 7.424C40.9989 6.67733 42.4389 6.304 44.0603 6.304C45.3829 6.304 46.5563 6.592 47.5803 7.168C48.6256 7.72267 49.4789 8.53333 50.1403 9.6L49.6603 10.496V6.688H53.0843V23.2C53.0843 24.6933 52.7216 26.0267 51.9963 27.2C51.2923 28.3947 50.3109 29.3333 49.0523 30.016C47.7936 30.6987 46.3429 31.04 44.7003 31.04ZM44.5083 20.064C45.4683 20.064 46.3216 19.84 47.0683 19.392C47.8149 18.9227 48.4016 18.304 48.8283 17.536C49.2763 16.7467 49.5003 15.8613 49.5003 14.88C49.5003 13.8987 49.2763 13.0133 48.8283 12.224C48.3803 11.4347 47.7829 10.816 47.0363 10.368C46.2896 9.89867 45.4469 9.664 44.5083 9.664C43.5269 9.664 42.6523 9.89867 41.8843 10.368C41.1163 10.816 40.5083 11.4347 40.0603 12.224C39.6336 12.992 39.4203 13.8773 39.4203 14.88C39.4203 15.84 39.6336 16.7147 40.0603 17.504C40.5083 18.2933 41.1163 18.9227 41.8843 19.392C42.6523 19.84 43.5269 20.064 44.5083 20.064ZM64.709 24.384C63.045 24.384 61.5197 23.9893 60.133 23.2C58.7677 22.4107 57.6797 21.3333 56.869 19.968C56.0583 18.6027 55.653 17.056 55.653 15.328C55.653 13.5787 56.0583 12.032 56.869 10.688C57.6797 9.32267 58.7677 8.256 60.133 7.488C61.4983 6.69867 63.0237 6.304 64.709 6.304C66.4157 6.304 67.941 6.69867 69.285 7.488C70.6503 8.256 71.7277 9.32267 72.517 10.688C73.3277 12.032 73.733 13.5787 73.733 15.328C73.733 17.0773 73.3277 18.6347 72.517 20C71.7063 21.3653 70.6183 22.4427 69.253 23.232C67.8877 24 66.373 24.384 64.709 24.384ZM64.709 21.024C65.733 21.024 66.6397 20.7787 67.429 20.288C68.2183 19.7973 68.837 19.1253 69.285 18.272C69.7543 17.3973 69.989 16.416 69.989 15.328C69.989 14.24 69.7543 13.2693 69.285 12.416C68.837 11.5627 68.2183 10.8907 67.429 10.4C66.6397 9.90933 65.733 9.664 64.709 9.664C63.7063 9.664 62.7997 9.90933 61.989 10.4C61.1997 10.8907 60.5703 11.5627 60.101 12.416C59.653 13.2693 59.429 14.24 59.429 15.328C59.429 16.416 59.653 17.3973 60.101 18.272C60.5703 19.1253 61.1997 19.7973 61.989 20.288C62.7997 20.7787 63.7063 21.024 64.709 21.024Z" fill="#1A202C"/>
</svg>
