<svg width="148" height="53" viewBox="0 0 148 53" fill="none" xmlns="http://www.w3.org/2000/svg">
<path d="M0.762512 19.6077L7.29557 30.4964L9.90368 28.0404L2.79316 17.5712L0.762512 19.6077Z" fill="url(#paint0_linear_51_379)"/>
<path d="M97.7631 11.0501L97.5105 12.4854L100.635 11.4899L100.246 9.73169L97.7631 11.0501Z" fill="#0071B9"/>
<path d="M79.5569 1.24758L69.5025 12.6313L72.4284 11.8005L82.0009 0L79.5569 1.24758Z" fill="url(#paint1_linear_51_379)"/>
<path d="M133.344 16.8122L135.812 15.5137L135.107 21.6153L133.344 16.8122Z" fill="#1D2C5E"/>
<path d="M118.005 20.725L120.199 21.1686L122.999 19.8266L120.569 18.9314L118.005 20.725Z" fill="#1D2C5E"/>
<path d="M42.374 14.2463L42.7249 21.3172L45.7866 20.0959L44.8702 12.9242L42.374 14.2463Z" fill="url(#paint2_linear_51_379)"/>
<path d="M120.38 12.1362L117.915 13.4492L118.006 20.725L120.486 19.4699L121.264 15.9481L120.38 12.1362Z" fill="url(#paint3_linear_51_379)"/>
<path d="M120.041 21.1889L117.328 44.9873L121.665 44.1425L122.515 19.9054L120.041 21.1889Z" fill="#312370"/>
<path d="M125.353 46.1281L125.43 49.3554L133.757 51.9756L136.235 50.6786L128.065 44.429L119.788 43.7113L117.328 44.9873L125.353 46.1281Z" fill="#21386E"/>
<path d="M94.4629 40.4518L96.5093 39.3636L97.8137 41.7429L99.7422 40.6964L100.126 43.8331L112.232 45.9528L114.651 44.6392L97.9582 34.5969L86.1165 36.6008L83.8066 38.7682L94.4629 40.4518Z" fill="#21386E"/>
<path d="M90.6081 11.1714L88.1846 12.4882L83.8066 38.7682L86.2588 37.5105L90.4614 22.7546L90.6081 11.1714Z" fill="url(#paint4_linear_51_379)"/>
<path d="M71.2697 14.6936L69.339 15.7089L69.5014 16.3445L74.0962 13.4627L72.0883 11.3354L69.5025 12.6313L71.2697 14.6936Z" fill="#1D2C5E"/>
<path d="M76.5483 45.7366L56.8068 36.0816L59.2851 34.2317L79.0049 44.4268L76.5483 45.7366Z" fill="#21386E"/>
<path d="M58.6621 9.80308L55.6704 15.4043L58.8315 14.4592L61.1126 8.4906L58.6621 9.80308Z" fill="#1D2C5E"/>
<path d="M31.5281 32.9427L29.0042 34.6532C29.0042 34.6532 29.5398 37.4337 30.2303 39.3678C30.9245 41.3089 32.5771 42.8681 32.5771 42.8681C33.6386 43.8926 34.9396 44.6381 36.3912 45.0565C39.1829 45.8497 42.3337 45.3327 45.0385 43.6297C45.7459 43.1878 46.7058 42.4803 47.2957 41.922C44.6371 43.515 31.5281 32.9427 31.5281 32.9427Z" fill="url(#paint5_linear_51_379)"/>
<path d="M45.0347 20.7405L47.3381 45.8294L56.7493 44.4547L59.2672 43.1518L47.588 19.2366L45.1852 20.0358L42.7249 21.3171L45.0347 20.7405Z" fill="#1D2C5E"/>
<path d="M9.75323 29.4549L20.2683 53L30.258 49.8184L32.6972 48.1996L11.9626 26.78L9.36807 28.3151L7.29559 30.4965L9.75323 29.4549Z" fill="url(#paint6_linear_51_379)"/>
<path d="M113.964 40.5633L114.106 41.7192C114.966 41.6237 115.87 41.5138 116.644 41.2418C117.545 40.9372 119.504 40.0758 120.249 39.4413C119.97 39.5416 115.38 40.7162 113.964 40.5633Z" fill="#1D2C5E"/>
<path d="M78.6214 34.5513L78.9962 36.4125C81.0182 36.1153 82.7539 35.3768 84.4602 34.3641C85.5309 33.7344 86.7065 32.7845 87.0775 32.5314C86.8157 32.6966 78.6214 34.5513 78.6214 34.5513Z" fill="#1D2C5E"/>
<path d="M23.0019 50.7677L22.2212 49.0551L12.2516 27.0863L12.0468 26.6357L11.5937 26.8422L11.2911 26.9795L9.51636 27.8398C9.25452 27.4065 8.81992 26.6802 8.51788 26.1766L4.50493 19.4807L3.45538 17.7327L5.19159 16.6465C6.83382 15.6124 8.68846 14.6572 10.7061 13.8065C14.7234 12.117 18.8238 11.2234 22.5629 11.2234C23.7928 11.2234 24.9831 11.3215 26.1011 11.5135C27.9649 11.7233 29.6887 12.3272 31.1125 13.2637C33.2344 14.4351 34.9049 16.2523 35.8485 18.402C36.6232 20.1688 36.7742 22.2381 36.282 24.3846L35.993 25.6456L37.054 24.8861C37.7689 24.3739 38.5457 23.9362 39.3627 23.5849C40.7752 22.9954 42.2365 22.6945 43.7006 22.6945C45.0864 22.6945 46.3967 22.9654 47.5956 23.498L48.3687 23.8402L48.291 23.0072L47.9547 19.4077L47.9004 18.837L47.3376 18.9813L45.6486 19.4136L45.3526 13.2846L57.7244 9.38205L57.6244 14.1455L58.5561 14.3815L61.2582 9.26888L69.3509 16.3553L69.6883 16.6519L70.0175 16.3462C71.1262 15.3174 72.4403 14.492 73.9229 13.8928L74.5422 13.6429L74.1179 13.1318L72.6587 11.3757L81.9498 0.80188L86.8157 7.97035L79.3672 11.9233L77.7131 12.8019L79.5911 12.841C83.1222 12.9145 86.2491 14.3895 88.3943 16.9936L89.1701 17.9381L89.6699 18.5447L88.8398 19.4147L88.2862 19.995L86.4251 21.9549L86.079 22.3191L86.4533 22.6527L88.1977 24.2033L88.8724 24.8024L89.0169 23.9185L89.6862 19.8277L89.8573 18.7775L89.8627 18.7834L90.0387 17.7107L91.0378 11.6712H99.9568H100.375L100.446 11.2641L100.62 10.23H108.652L110.598 22.3631L110.724 23.1488L111.376 22.6817C112.165 22.1163 113.035 21.6513 113.965 21.3C115.203 20.8387 116.478 20.6033 117.75 20.6033C119.265 20.6033 120.735 20.9487 122.007 21.6014C122.041 21.6256 122.089 21.6567 122.154 21.6824L122.757 21.9216L122.828 21.2823L122.974 19.9602L123.022 19.5268L122.59 19.4319L120.961 19.0725L120.882 12.7477L133.299 15.4461L134.232 19.9972L135.196 20.0159L136.158 16.0994L146.512 18.5855L135.931 50.0715L128.359 47.7238L128.305 44.8237L128.298 44.408L127.88 44.3501L120.325 43.2972L120.752 39.5057L120.854 38.6035L120.036 39.0171C119.649 39.2118 119.274 39.3754 118.92 39.5041C117.684 39.9654 116.419 40.1987 115.159 40.1987C114.795 40.1987 114.429 40.1788 114.072 40.1391L113.427 40.0678L113.528 40.7007L114.06 44.0353L103.037 42.1156L102.459 37.1672L102.274 35.5812L101.531 36.9988L100.262 39.4151L97.9256 35.1564L97.2232 33.8771L97.0015 35.3146L96.4925 38.6111L86.8314 37.1098L87.5806 32.5856L87.7517 31.5483L86.8385 32.0873C85.2571 33.0232 83.441 33.7275 81.2882 34.2408C80.5358 34.4221 79.7497 34.5476 78.9495 34.613L78.4964 34.6506V35.0995V43.6373L59.4704 34.3534L58.7555 34.0053L58.756 34.7922L58.7691 42.7325L50.2624 43.9698L49.9049 40.1568L49.8083 39.1367L49.0667 39.8543C47.9427 40.9405 46.6764 41.7826 45.3037 42.3575C43.8994 42.947 42.4505 43.2452 40.9985 43.2452C39.5485 43.2452 38.1861 42.9459 36.9486 42.3608C34.6561 41.2719 33.0024 39.2965 32.293 36.8041C31.9551 35.6332 31.8633 34.3969 32.0203 33.1278L32.1881 31.7762L31.1896 32.7148C30.4856 33.3746 29.7272 34.0048 28.9341 34.5835L28.6652 34.7793L28.7499 35.0984L31.6155 45.9587L32.1218 47.8858L30.2031 48.4881L24.8076 50.1938L23.0019 50.7677ZM25.4236 21.6132C25.1455 21.6132 24.8581 21.6384 24.5686 21.6899L24.2013 21.7597L23.6592 21.8626L23.8227 22.384L23.9292 22.723L25.472 27.7074L25.6263 28.1863L25.8555 28.9051L26.4259 28.4041L26.8046 28.071C28.3001 26.7441 28.8243 25.3967 28.5087 23.6975C28.3099 22.6779 27.5102 22.17 27.0507 21.9576C26.5704 21.7291 26.0207 21.6132 25.4236 21.6132ZM66.7835 21.7768L65.8193 22.7037L63.2796 25.1403L62.7266 25.6708L63.4464 25.9454L66.1702 26.9833L67.0068 27.3013L66.8341 26.4335C66.6092 25.3125 66.5505 24.1904 66.6559 23.099L66.7835 21.7768ZM77.8744 19.0054C76.8211 19.0054 75.8019 19.4528 75.0778 20.2316C73.9794 21.4158 73.7659 23.1628 74.547 24.5777L74.754 24.9612L75.087 25.5743L75.5559 25.0561L75.8574 24.7263L79.5829 20.5266L79.8757 20.194L80.3456 19.6609L79.6753 19.4158L79.2575 19.2634C78.8191 19.0939 78.3498 19.0054 77.8744 19.0054Z" fill="#FFCB05"/>
<path d="M83.5739 25.2262C83.5379 25.2573 83.5047 25.297 83.4764 25.3378C83.514 25.304 83.5505 25.2745 83.5891 25.2434L83.5739 25.2262Z" fill="#7D7F68"/>
<path d="M86.7858 22.2885L88.6464 20.3286L88.0097 20.9958L88.0282 20.9116L87.4654 21.4979L85.6064 23.4518L87.348 24.9987L87.6637 23.0721L88.5307 23.8386L86.7858 22.2885Z" fill="#7D7F68"/>
<path d="M86.7858 22.2885L88.5307 23.8386L89.1989 19.7483L88.6464 20.3286L86.7858 22.2885Z" fill="#7D7F68"/>
<path d="M73.925 27.1903C74.0739 27.3389 73.9364 27.2321 74.1032 27.3448L75.2413 26.5526C75.0724 26.4346 74.905 26.308 74.7513 26.1664C73.0998 24.6807 73.529 21.3391 74.6003 19.5101C71.7803 21.7564 71.927 25.2143 73.925 27.1903Z" fill="#C7A008"/>
<path d="M87.6637 29.0611C85.784 30.5961 83.6415 31.597 80.8106 32.2723C80.1919 32.4123 79.5856 32.5142 78.9924 32.5657C74.4992 33.0017 70.7297 30.9646 69.2993 27.6606C69.1211 27.2605 68.9837 26.8555 68.8799 26.4232C68.2182 23.6406 68.7832 21.154 70.1756 19.2049C70.3135 19.0161 70.4586 18.8353 70.6107 18.6514C70.5395 18.7114 70.4667 18.7629 70.4075 18.8193C69.8724 19.2896 69.3987 19.8051 68.9962 20.3683C67.6022 22.3174 67.0372 24.8056 67.7049 27.5839C67.807 28.0162 67.9423 28.4271 68.1167 28.8181C69.5476 32.1296 73.3182 34.1656 77.8076 33.7328C78.4057 33.6759 79.0098 33.5783 79.6291 33.4308C82.4632 32.7555 84.6041 31.759 86.4837 30.2239C86.9428 29.8511 87.3855 29.4446 87.8152 28.9999L87.7756 28.9624C87.7327 28.9988 87.7006 29.0305 87.6637 29.0611Z" fill="#C7A008"/>
<path d="M55.9985 20.6494L61.0187 13.6842L60.8149 13.4987L55.9714 20.216L55.9985 20.6494Z" fill="#C7A008"/>
<path d="M89.1989 19.7483L88.5307 23.8386L87.6637 23.0721L87.348 24.9987L85.6064 23.4519L87.4654 21.4979L88.0282 20.9117L88.0097 20.9959L88.6464 20.3286L89.1989 19.7483Z" fill="#C7A008"/>
<path d="M82.9956 8.27546L84.7535 7.53099L81.5402 3.45947L80.4874 4.9114L82.9956 8.27546Z" fill="#C7A008"/>
<path d="M34.3269 18.3624C26.213 8.60326 11.5926 13.8489 6.33783 18.4138L6.54318 18.7641C7.75135 18.0797 9.02526 17.4607 10.3654 16.9056C15.5849 14.7044 20.5611 14.0591 24.5506 14.7483C25.9609 14.9082 27.4548 15.3212 28.7548 16.1804C30.5546 17.1754 31.9187 18.5908 32.7161 20.4048C34.1313 23.6176 32.8845 27.8897 29.5517 31.4662C33.732 27.6789 36.5922 24.0553 34.3269 18.3624Z" fill="#C7A008"/>
<path d="M50.8806 29.7321C50.8426 29.5551 50.8046 29.3754 50.7464 29.2021C50.2896 27.5796 49.3079 26.2843 48.021 25.4224C45.9382 24.0257 43.0307 23.7388 40.1331 24.9466C38.6087 25.5972 37.2832 26.5986 36.2353 27.7947C37.0409 27.1103 37.9617 26.5402 38.9564 26.1154C41.8475 24.9037 44.755 25.1901 46.8449 26.5852C48.1318 27.4482 49.1053 28.743 49.5719 30.3634C49.6235 30.5371 49.6637 30.7195 49.7039 30.9024C49.8278 31.5192 49.8854 32.143 49.8615 32.7818C49.8012 34.6494 49.0999 36.5299 47.9335 38.1358C47.7456 38.39 47.5478 38.6271 47.343 38.862C48.0069 38.2961 48.5995 37.6702 49.1058 36.9692C50.2771 35.3735 50.9768 33.4893 51.0387 31.6104C51.0648 30.9834 51.0121 30.3494 50.8806 29.7321Z" fill="#C7A008"/>
<path d="M42.8911 27.3501C42.8797 27.3678 44.0683 26.1873 44.0548 26.1873C42.5679 26.1315 41.9394 27.5159 41.8878 27.6248C42.1931 27.4789 42.5299 27.3839 42.8911 27.3501Z" fill="#C7A008"/>
<path d="M45.6915 29.0423C45.7518 29.2413 45.7833 29.4392 45.7833 29.6559C45.7833 29.9616 45.7144 30.255 45.5889 30.5253C45.8268 30.4025 47.5462 29.5792 46.8796 27.835C46.9155 27.8886 45.6486 29.0369 45.6915 29.0423Z" fill="#C7A008"/>
<path d="M38.9282 30.0132C38.9282 29.2955 40.1727 27.5545 40.5606 26.9736C38.5952 28.2073 37.7488 29.8721 37.7488 31.1835C37.7488 33.4303 39.7485 35.2373 42.1393 35.2373C43.2703 35.2373 45.3417 34.6468 46.6966 32.4821C45.9865 32.9433 44.1819 34.0472 43.235 34.0472C40.8447 34.0466 38.9282 32.2723 38.9282 30.0132Z" fill="#C7A008"/>
<path d="M55.7535 32.0696L55.7845 41.1636L57.2464 41.2462L56.9574 30.8794L55.7535 32.0696Z" fill="#C7A008"/>
<path d="M47.3625 14.7558L47.3924 15.5635L54.3204 13.527L54.8338 22.2375L55.9898 20.6381L55.7432 11.897L47.3625 14.7558Z" fill="#C7A008"/>
<path d="M68.3052 17.8748L61.7976 11.978L61.0186 13.6842L66.746 18.9969L68.3052 17.8748Z" fill="#C7A008"/>
<path d="M67.3159 28.8637L59.6757 26.3696L58.5626 27.5303L66.174 30.5377C67.0372 32.1436 68.3454 33.5193 69.9925 34.525C71.5869 35.4878 73.4089 36.0644 75.3386 36.2473V39.9589L76.5185 40.5403L76.8917 34.9643L67.3159 28.8637Z" fill="#C7A008"/>
<path d="M79.5846 27.8146C81.4609 27.3678 82.5431 26.4013 83.4747 25.3376C82.7756 25.904 79.2706 26.6582 78.6817 26.855L77.5273 28.0688C78.0548 28.1149 78.937 27.9744 79.5846 27.8146Z" fill="#C7A008"/>
<path d="M76.1719 14.9875C72.712 15.4349 70.909 18.3028 70.6107 18.652C71.8884 17.5862 73.4899 16.7951 75.2935 16.3735C79.5748 15.3512 83.3498 16.6401 85.683 19.4881L87.127 18.2813C84.816 15.4826 80.4521 13.9685 76.1719 14.9875Z" fill="#C7A008"/>
<path d="M87.7761 28.9625C88.1933 28.616 88.9349 28.2658 89.3293 27.8576L84.6965 23.7705C84.3417 24.1894 84.0201 24.8797 83.5872 25.2428L87.7761 28.9625Z" fill="#C7A008"/>
<path d="M111.551 39.915C106.69 35.9706 106.981 27.5127 109.367 24.8293L107.225 11.5731L102.541 12.1701L102.333 13.3377H105.877L107.754 25.3651C105.366 28.0571 104.212 31.6636 105.01 34.9654C105.628 37.5169 107.215 39.5819 109.5 40.7764C109.73 40.9008 109.967 41.0092 110.21 41.1116L110.24 41.2881L111.634 41.5053C111.634 41.5048 111.779 40.0298 111.551 39.915Z" fill="#C7A008"/>
<path d="M92.8696 13.5239L92.6681 14.692H98.0104L99.5841 23.21L100.769 22.0279L99.5233 13.0358L92.8696 13.5239Z" fill="#C7A008"/>
<path d="M102.015 30.0598L100.29 34.459L100.717 35.6036L103.184 28.9039L102.015 30.0598Z" fill="#C7A008"/>
<path d="M96.8928 27.2889L95.7053 28.4598L94.4325 36.4055L95.6515 36.8651L96.8928 27.2889Z" fill="#C7A008"/>
<path d="M120.886 24.751C121.585 25.2439 122.182 25.8677 122.631 26.6095C122.985 27.1786 123.253 27.8158 123.424 28.5152C124.006 30.9036 123.31 33.4867 121.772 35.5592C121.617 35.7695 121.446 35.9727 121.283 36.1723C121.908 35.6418 129.496 30.1157 122.083 22.8576C113.928 20.2037 110.842 25.4563 110.553 25.7894C111.415 25.0664 112.409 24.4683 113.486 24.0618C116.245 23.0298 118.961 23.3876 120.886 24.751Z" fill="#C7A008"/>
<path d="M116.776 25.2745C116.798 25.3254 117.946 24.0934 117.97 24.0934C116.519 24.1524 115.822 24.8438 115.893 25.1629C115.806 25.2868 115.736 25.4096 115.68 25.5453C115.99 25.393 116.563 25.2761 116.776 25.2745Z" fill="#C7A008"/>
<path d="M119.504 27.075C119.556 27.267 119.581 27.4681 119.577 27.6843C119.564 27.961 119.491 28.2147 119.384 28.4513C119.605 28.3531 121.363 27.8141 120.692 25.9036C120.709 25.9577 119.485 27.0761 119.504 27.075Z" fill="#C7A008"/>
<path d="M115.652 33.1412C117.293 33.2104 119.108 32.2149 120.409 30.4556C117.069 31.132 113.558 25.6407 113.911 25.1033C112.649 26.0065 111.532 27.7486 111.481 28.9661C111.394 31.2237 113.255 33.0468 115.652 33.1412Z" fill="#C7A008"/>
<path d="M133.954 47.4486L134.737 47.9657L144.291 19.6538L137.141 18.0222L137.051 19.6806L142.819 20.9443L133.954 47.4486Z" fill="#C7A008"/>
<path d="M122.607 14.9875L122.67 16.5687L130.272 18.0765L133.199 31.7821L134.384 30.6032L131.596 16.7565L122.607 14.9875Z" fill="#C7A008"/>
<path d="M128.458 30.6059L126.365 42.2942L127.57 42.6799L129.648 29.4548L128.458 30.6059Z" fill="#C7A008"/>
<path d="M29.7962 46.583L26.2402 33.8535L24.9385 34.7525L28.2344 46.9477L29.7962 46.583Z" fill="#C7A008"/>
<path d="M28.8732 27.4413C28.0529 28.3006 26.2347 29.9703 25.1987 30.6289L24.5696 28.6347L23.192 24.2623L22.3163 21.3021L21.4617 22.385L22.3342 25.3495L23.7118 29.7187L24.3382 31.7188C25.7566 30.8166 27.8199 29.1233 28.8732 27.4413Z" fill="#C7A008"/>
<path d="M79.2603 19.9145C78.1379 19.4881 76.5484 19.6163 75.6901 20.5437C75.4907 20.7588 75.1028 21.3075 74.98 21.5526C75.8107 20.9004 77.2899 20.7593 78.2596 21.1047L79.2603 19.9145Z" fill="#7D7F68"/>
<path d="M27.8471 23.8643C27.721 23.21 27.0719 22.6903 26.7535 22.546C26.1842 22.2746 25.1993 22.2322 24.48 22.3615C24.6093 22.8024 24.7576 23.3194 24.8207 23.5313C25.1124 23.5715 25.5915 23.6573 25.843 23.7705C26.1587 23.9207 26.7106 24.2747 26.8388 24.9333C27.0105 25.8124 26.9654 26.6341 26.5943 27.3014C27.6118 26.3155 28.1057 25.2433 27.8471 23.8643Z" fill="#7D7F68"/>
<path d="M29.6289 23.8461C29.1405 21.2587 25.7137 19.8325 22.3163 21.6621L23.192 24.6233L24.5697 28.9995L25.1982 30.9926C27.7471 29.3744 30.309 27.4301 29.6289 23.8461ZM26.2543 27.8249C25.8832 26.6293 25.0694 24.0478 25.0694 24.0478C25.0732 24.0596 24.9092 23.4954 24.7147 22.8496C25.435 22.7225 26.1271 22.7739 26.6965 23.0443C27.0148 23.1939 27.5743 23.5431 27.6966 24.205C27.978 25.6928 27.47 26.7548 26.2543 27.8249Z" fill="#3C5AA6"/>
<path d="M81.0389 19.7407C79.1397 18.0206 76.1877 18.1542 74.4553 20.0277C72.7125 21.898 72.8494 24.8142 74.7513 26.5273C74.9062 26.6748 75.0735 26.7955 75.2419 26.914L81.368 20.0641C81.2599 19.9526 81.1513 19.8416 81.0389 19.7407ZM75.2544 24.5589C74.6552 23.4727 74.7763 22.0937 75.6721 21.1272C76.5337 20.2004 77.8538 19.9365 78.9794 20.365L75.2544 24.5589Z" fill="#3567B0"/>
<path d="M89.2244 18.9888L85.8318 22.2161L89.0549 25.0738L89.2244 18.9888Z" fill="#1E2D5F"/>
<path d="M120.683 25.9036C120.734 26.1068 120.761 26.308 120.754 26.522C120.698 27.8017 119.479 28.7897 118.027 28.7227C116.575 28.6733 115.435 27.5856 115.492 26.309C115.541 25.1124 116.621 24.1652 117.954 24.1046C117.701 24.0483 117.437 24.0188 117.161 24.0091C114.731 23.9056 112.745 25.6048 112.661 27.7202C112.568 29.9826 114.404 31.8271 116.796 31.9296C119.229 32.0256 121.214 30.3205 121.311 28.0688C121.339 27.2884 121.105 26.5402 120.683 25.9036Z" fill="#3466AF"/>
<path d="M46.9671 28.4873C46.9671 29.7724 45.7834 30.8022 44.3334 30.8022C42.8797 30.8022 41.7003 29.7719 41.7003 28.4873C41.7003 27.2896 42.7379 26.3021 44.0678 26.1874C43.813 26.1418 43.5479 26.1155 43.2741 26.1155C40.8447 26.1155 38.9282 27.8946 38.9282 30.0132C38.9282 32.274 40.8453 34.0472 43.235 34.0472C45.6666 34.0472 47.5815 32.2729 47.5815 30.0132C47.5815 29.2307 47.3197 28.4932 46.8693 27.886C46.9302 28.0689 46.9671 28.2717 46.9671 28.4873Z" fill="url(#paint7_linear_51_379)"/>
<path d="M135.796 15.5072L134.717 19.8973L133.721 15.0363L120.379 12.1367L120.473 19.4613L122.483 19.9065L122.338 21.2275C122.312 21.2173 122.296 21.2018 122.282 21.1905C119.79 19.892 116.7 19.759 113.792 20.8435C112.816 21.212 111.91 21.6963 111.089 22.2852L109.076 9.74081H100.203L99.9589 11.1831H90.62L89.5536 17.6318L88.7789 16.6872C86.5158 13.9421 83.2351 12.4301 79.6008 12.355L87.53 8.14728L82.0009 0.000488281L72.0112 11.3654L73.7354 13.4412C72.1736 14.0714 70.809 14.9403 69.6785 15.99L61.1131 8.4868L58.1182 14.154L58.2334 8.70778L44.8419 12.9316L45.1852 20.0352L47.4636 19.4516L47.8004 23.0517C45.1972 21.8974 42.0681 21.9259 39.1661 23.1364C38.3061 23.5065 37.5043 23.9614 36.7655 24.4902C37.2674 22.297 37.1485 20.135 36.3021 18.2067C35.3025 15.9283 33.5435 14.0451 31.3868 12.8571C29.875 11.8627 28.073 11.2432 26.1874 11.0324C21.5535 10.2327 15.9891 11.0538 10.5126 13.3575C8.49938 14.2055 6.62138 15.1677 4.92755 16.2329L2.78662 17.5733L4.07954 19.7289L8.09195 26.4243C8.09195 26.4243 9.31968 28.4759 9.32783 28.4748L11.4975 27.422L11.8001 27.2846L21.7703 49.2545L22.7318 51.3662L24.9581 50.6582L30.3525 48.952L32.7167 48.2102L32.093 45.8342L29.228 34.9755C30.0521 34.3732 30.8213 33.7344 31.5313 33.0655C31.3711 34.363 31.4553 35.6766 31.8171 36.9338C32.5662 39.5662 34.3122 41.6457 36.735 42.7978C39.3519 44.0395 42.5445 44.0427 45.4981 42.8059C46.9795 42.1853 48.2969 41.2799 49.4133 40.2024L49.8202 44.5271L59.2672 43.1534L59.2525 34.79L78.9924 44.4225V35.0957C79.7844 35.0302 80.5928 34.9069 81.4055 34.71C83.5796 34.1914 85.4402 33.4802 87.0933 32.5024L86.2643 37.5114L96.9075 39.1651L97.4915 35.3837L100.271 40.4539L101.971 37.2213L102.591 42.5291L114.659 44.6295L114.019 40.6213C115.671 40.8058 117.412 40.5869 119.094 39.9605C119.492 39.8151 119.885 39.6381 120.262 39.4482L119.781 43.7129L127.812 44.8317L127.872 48.0837L136.247 50.6791L147.15 18.2319L135.796 15.5072ZM88.6464 20.3291L89.2 19.7482L88.5312 23.8391L86.7869 22.2879L88.6464 20.3291ZM81.5744 3.61824L84.4982 7.53958L76.1393 11.6309L75.5618 10.7647L81.5744 3.61824ZM26.2238 33.8567L29.5588 46.4907L24.1611 48.1931L13.0849 23.7704C12.4824 24.0831 11.3699 24.6077 10.348 25.1022L6.33727 18.4127C7.93223 17.407 9.68148 16.5156 11.5421 15.7395C16.7638 13.5468 21.7458 12.8925 25.7305 13.5876C27.1403 13.7442 28.6326 14.1545 29.9396 15.0111C31.7329 16.0082 33.1045 17.4274 33.8955 19.2349C35.8246 23.6363 32.602 29.9702 26.2238 33.8567ZM51.0398 31.6083C50.9778 33.4893 50.2781 35.3741 49.1069 36.9687C47.9927 38.5107 46.4363 39.7835 44.605 40.5617C39.9223 42.5205 35.2395 40.5617 33.9884 36.1722C32.7764 31.9279 35.5964 26.8754 40.1336 24.9456C43.0312 23.7377 45.9387 24.0241 48.0215 25.4213C49.3079 26.2827 50.289 27.578 50.7469 29.2011C50.8045 29.3732 50.8426 29.554 50.8811 29.731C51.0121 30.3494 51.0647 30.9834 51.0398 31.6083ZM76.5185 40.5403L56.9318 30.8681L56.9666 41.0021L51.8997 41.6843L51.5466 37.5072C53.1111 34.8586 53.6832 31.7375 52.8667 28.8755C52.4185 27.3023 51.5906 25.9368 50.4655 24.8426L49.7387 16.3257L47.4636 16.9082L47.3631 14.7547L55.4998 12.3625L55.9985 20.6482L61.9927 12.333L67.8526 17.8431L59.6578 26.3669L67.3566 29.3738C68.2166 30.9829 69.5285 32.35 71.1746 33.3573C72.7657 34.3271 74.5889 34.9004 76.5174 35.0887L76.5185 40.5403ZM66.3484 26.5273L63.624 25.4894L66.1637 23.0522C66.055 24.1711 66.111 25.3409 66.3484 26.5273ZM87.6637 29.0611C85.784 30.5961 83.6415 31.597 80.8106 32.2723C80.1919 32.4123 79.5856 32.5142 78.9924 32.5657C74.4992 33.0017 70.7297 30.9646 69.2993 27.6606C69.1211 27.2605 68.9837 26.8556 68.8799 26.4233C68.2182 23.6406 68.7832 21.1535 70.1755 19.2049C70.5765 18.6364 71.0523 18.1182 71.5869 17.6516C72.8983 16.4963 74.5726 15.6563 76.4761 15.2047C80.7563 14.1856 84.5259 15.4756 86.8368 18.2754L78.6806 26.847C79.2336 26.95 80.1131 26.8067 80.7623 26.6534C82.7049 26.1856 83.792 25.1676 84.7497 24.0584L88.0092 26.9537L88.9968 27.8344C88.5687 28.2716 88.1189 28.684 87.6637 29.0611ZM104.968 40.5001L103.193 28.8959L100.684 35.2974L96.9271 27.2964H96.8847L95.4 36.5621L89.138 35.4861L90.0186 30.3156C90.2549 30.0963 90.4874 29.8763 90.7162 29.6441L92.7457 27.5807L90.7732 25.8365L92.869 13.5232H99.187L100.768 22.0471L102.54 12.1689H107.06L108.935 24.2038C106.548 26.8877 105.389 30.4958 106.187 33.7966C106.803 36.3556 108.396 38.4163 110.679 39.6199C110.909 39.7341 111.147 39.8473 111.393 39.9449L111.632 41.5052L104.968 40.5001ZM120.572 36.7192C119.882 37.2047 119.122 37.6171 118.305 37.9148C116.692 38.5214 115.088 38.6475 113.658 38.3669C112.662 38.1728 111.754 37.7893 110.963 37.2341C109.706 36.3363 108.781 35.0104 108.373 33.3455C107.897 31.3454 108.335 29.2096 109.425 27.3388C109.968 26.4243 110.665 25.5651 111.49 24.8244C112.41 24.0102 113.476 23.3435 114.662 22.8929C117.424 21.876 120.147 22.2268 122.064 23.5875C122.769 24.081 123.354 24.709 123.815 25.439C124.165 26.0156 124.437 26.6512 124.602 27.3453C125.189 29.7471 124.49 32.3195 122.955 34.392C122.298 35.2754 121.496 36.0692 120.572 36.7192ZM134.672 47.6567L130.042 46.2949L129.638 29.4392L127.309 42.4422L122.257 41.6463L122.619 37.9025C125.918 35.1504 127.667 30.8091 126.708 26.8749C126.287 25.1328 125.38 23.6159 124.101 22.4628L124.528 18.0474L122.618 17.5454L122.745 15.1881L131.449 16.9152L134.375 30.6171L137.376 18.3328L143.998 19.7772L134.672 47.6567Z" fill="url(#paint8_linear_51_379)"/>
<path d="M138.477 49.2543V47.9818H137.996V47.8115H139.154V47.9818H138.671V49.2543H138.477Z" fill="black"/>
<path d="M139.348 49.2543V47.8115H139.639L139.985 48.8331C140.016 48.9282 140.04 48.9994 140.054 49.0466C140.071 48.9941 140.097 48.917 140.132 48.8153L140.482 47.8115H140.742V49.2543H140.556V48.0467L140.131 49.2543H139.957L139.534 48.0261V49.2543H139.348Z" fill="black"/>
<defs>
<linearGradient id="paint0_linear_51_379" x1="7.98767" y1="28.7082" x2="2.65282" y2="18.6383" gradientUnits="userSpaceOnUse">
<stop stop-color="#0070B6"/>
<stop offset="1" stop-color="#1D2C5E"/>
</linearGradient>
<linearGradient id="paint1_linear_51_379" x1="74.359" y1="8.25309" x2="81.1724" y2="0.859045" gradientUnits="userSpaceOnUse">
<stop stop-color="#0070B6"/>
<stop offset="1" stop-color="#1D2C5E"/>
</linearGradient>
<linearGradient id="paint2_linear_51_379" x1="44.2232" y1="20.4354" x2="43.42" y2="13.6007" gradientUnits="userSpaceOnUse">
<stop stop-color="#0070B6"/>
<stop offset="1" stop-color="#1D2C5E"/>
</linearGradient>
<linearGradient id="paint3_linear_51_379" x1="119.677" y1="19.1202" x2="119.356" y2="12.9527" gradientUnits="userSpaceOnUse">
<stop stop-color="#125D9E"/>
<stop offset="1" stop-color="#1D2C5E"/>
</linearGradient>
<linearGradient id="paint4_linear_51_379" x1="96.6234" y1="10.231" x2="89.5065" y2="21.6986" gradientUnits="userSpaceOnUse">
<stop stop-color="#125D9E"/>
<stop offset="1" stop-color="#1D2C5E"/>
</linearGradient>
<linearGradient id="paint5_linear_51_379" x1="32.4718" y1="28.4934" x2="37.3149" y2="38.1404" gradientUnits="userSpaceOnUse">
<stop stop-color="#105FA1"/>
<stop offset="1" stop-color="#1D2C5E"/>
</linearGradient>
<linearGradient id="paint6_linear_51_379" x1="13.8228" y1="25.2177" x2="19.421" y2="38.3618" gradientUnits="userSpaceOnUse">
<stop stop-color="#105FA1"/>
<stop offset="1" stop-color="#1D2C5E"/>
</linearGradient>
<linearGradient id="paint7_linear_51_379" x1="38.9282" y1="30.081" x2="47.5814" y2="30.081" gradientUnits="userSpaceOnUse">
<stop stop-color="#3C5AA6"/>
<stop offset="0.9331" stop-color="#2B73B9"/>
<stop offset="1" stop-color="#2A75BB"/>
</linearGradient>
<linearGradient id="paint8_linear_51_379" x1="2.78699" y1="25.6832" x2="147.151" y2="25.6832" gradientUnits="userSpaceOnUse">
<stop stop-color="#3C5AA6"/>
<stop offset="0.9331" stop-color="#2B73B9"/>
<stop offset="1" stop-color="#2A75BB"/>
</linearGradient>
</defs>
</svg>
