<svg width="60" height="60" viewBox="0 0 60 60" fill="none" xmlns="http://www.w3.org/2000/svg">
<path d="M33.2741 2C19.6108 2 8.55127 12.3315 8.55127 25.0711C8.55127 25.799 8.5793 26.499 8.66329 27.199C11.1552 25.575 14.1511 24.6511 17.3989 24.6511C25.9104 24.6511 32.7982 31.0908 32.7982 39.0425C32.7982 42.3743 31.5665 45.4542 29.4946 47.8901C30.7265 48.0581 31.9862 48.1421 33.2741 48.1421L45.0057 55.1138C46.9936 56.3178 49.4855 54.6938 49.2055 52.3699L48.1135 43.5223C54.1053 39.3225 57.9971 32.6307 57.9971 25.0711C57.9971 16.4754 52.9576 8.97174 45.4539 4.99591" stroke="#292D32" stroke-width="3" stroke-linecap="round" stroke-linejoin="round"/>
<path d="M8.66373 27.1992C11.1556 25.5753 14.1515 24.6513 17.3994 24.6513C25.911 24.6513 32.7987 31.0908 32.7987 39.0424C32.7987 42.3743 31.5668 45.4545 29.4949 47.8904C26.723 51.2502 22.3272 53.4058 17.3994 53.4058L10.0917 57.7457C8.85972 58.5016 7.29178 57.4657 7.45978 56.0377L8.15975 50.5222C4.4079 47.9183 2 43.7462 2 39.0424C2 38.2025 2.084 37.3905 2.22399 36.6065" stroke="#292D32" stroke-width="3" stroke-linecap="round" stroke-linejoin="round"/>
</svg>
