<svg width="69" height="60" viewBox="0 0 69 60" fill="none" xmlns="http://www.w3.org/2000/svg">
<path d="M67 26.9781V8.02168C67 4.42233 63.815 1.75282 59.9475 2.05276H59.7525C52.9275 2.59267 42.56 5.80208 36.775 9.16148L36.2225 9.49141C35.28 10.0313 33.72 10.0313 32.7775 9.49141L31.965 9.0415C26.18 5.7121 15.845 2.53268 9.02 2.02277C5.1525 1.72282 2 4.42233 2 7.99169V44.225C2 47.1045 4.535 49.804 7.655 50.1639L8.5975 50.2839C15.65 51.1537 26.5375 54.4531 32.7775 57.6026L32.9075 57.6626C33.785 58.1125 35.1825 58.1125 36.0275 57.6626C42.2675 54.4831 53.1875 51.1537 60.2725 50.2839L61.345 50.1639C64.465 49.804 67 47.1045 67 44.225V39.0659" stroke="#292D32" stroke-width="3" stroke-linecap="round" stroke-linejoin="round"/>
<path d="M34.5 10.4814V55.4732" stroke="#292D32" stroke-width="3" stroke-linecap="round" stroke-linejoin="round"/>
<path d="M20.6875 19.4797H13.375" stroke="#292D32" stroke-width="3" stroke-linecap="round" stroke-linejoin="round"/>
<path d="M23.125 28.4781H13.375" stroke="#292D32" stroke-width="3" stroke-linecap="round" stroke-linejoin="round"/>
</svg>
